<svg width="191" height="192" viewBox="0 0 191 192" fill="none" xmlns="http://www.w3.org/2000/svg" xmlns:xlink="http://www.w3.org/1999/xlink">
<ellipse cx="95.4603" cy="96" rx="91.4286" ry="96" fill="black"/>
<ellipse cx="95.4603" cy="96" rx="91.4286" ry="96" fill="url(#pattern0_1339_481)"/>
<ellipse cx="41.1429" cy="80.3333" rx="27.9365" ry="29.3333" fill="#ACFF40"/>
<path d="M17.2468 79.0254L17.3296 77.8454C17.3296 77.4934 17.2486 77.2363 17.0864 77.0742L17.1899 76.9655C17.3314 77.1035 17.5039 77.1725 17.7075 77.1725H19.5345C19.7416 77.1725 19.9141 77.1035 20.0521 76.9655L20.1556 77.0742C20.0211 77.2087 19.9538 77.3813 19.9538 77.5917V83.6474C19.9538 83.8544 20.0211 84.027 20.1556 84.165L20.0521 84.2685C19.9175 84.1339 19.745 84.0667 19.5345 84.0667H17.7075C17.497 84.0667 17.3245 84.1339 17.1899 84.2685L17.0864 84.165C17.2175 84.0339 17.2831 83.8613 17.2831 83.6474L17.2727 81.9083C17.2727 81.7013 17.3383 81.5305 17.4694 81.3959L17.3659 81.2924C17.2348 81.4236 17.0622 81.4891 16.8483 81.4891H14.7262C14.5157 81.4891 14.3432 81.4236 14.2087 81.2924L14.1051 81.3959C14.112 81.4753 14.1155 81.8928 14.1155 82.6485V84.9828C14.1155 85.2968 14.1552 85.7419 14.2345 86.3181C14.3139 86.8944 14.3536 87.3015 14.3536 87.5396C14.3536 87.7777 14.3242 87.9399 14.2656 88.0261C14.2104 88.1124 14.1431 88.1555 14.0637 88.1555C13.9844 88.1555 13.9154 88.1124 13.8567 88.0261C13.8015 87.9433 13.7739 87.857 13.7739 87.7673C13.7739 87.6811 13.7911 87.4792 13.8256 87.1618C13.9292 86.2025 13.9809 85.4814 13.9809 84.9983C13.9809 84.7602 13.9085 84.5532 13.7635 84.3772C13.4806 84.0356 13.0924 83.8648 12.599 83.8648C12.3471 83.8648 12.1349 83.9235 11.9624 84.0408C11.7933 84.1581 11.7088 84.3203 11.7088 84.5273C11.7088 84.7378 11.7415 85.0449 11.8071 85.4486C11.8761 85.8523 11.9106 86.1318 11.9106 86.2871C11.9106 86.608 11.8105 86.7684 11.6104 86.7684C11.5172 86.7684 11.4379 86.7322 11.3723 86.6597C11.3068 86.5907 11.274 86.4751 11.274 86.3129C11.274 86.1542 11.3292 85.8678 11.4396 85.4538C11.5535 85.0397 11.6104 84.7171 11.6104 84.4859V77.5917C11.6104 77.3744 11.5449 77.2018 11.4137 77.0742L11.5121 76.9655C11.6535 77.1035 11.8261 77.1725 12.0296 77.1725H13.8878C14.0913 77.1725 14.2621 77.1035 14.4002 76.9655L14.5088 77.0742C14.3501 77.2329 14.2708 77.4917 14.2708 77.8505L14.3484 79.041C14.3484 79.3964 14.2673 79.6552 14.1051 79.8173L14.2087 79.926C14.3432 79.7915 14.5157 79.7242 14.7262 79.7242H16.869C17.0795 79.7242 17.2503 79.7915 17.3814 79.926L17.4901 79.8173C17.3279 79.6517 17.2468 79.3877 17.2468 79.0254ZM29.9559 78.218L30.0024 80.8628C30.0024 81.7841 29.8886 82.4587 29.6608 82.8866C29.4469 83.2937 29.1415 83.5991 28.7447 83.8027C28.2927 84.0373 27.6923 84.1891 26.9436 84.2582V85.226L26.9953 85.7591C26.9953 85.8764 26.9625 85.9351 26.897 85.9351C26.8314 85.9351 26.7986 85.8212 26.7986 85.5935L26.8297 84.7499C26.8297 84.3772 26.7141 84.1909 26.4829 84.1909C26.3035 84.1909 26.2138 84.3375 26.2138 84.6308C26.2138 84.6308 26.2224 84.7809 26.2397 85.0811C26.2397 85.1846 26.2604 85.3347 26.3018 85.5314C26.3466 85.7315 26.369 85.873 26.369 85.9558C26.369 86.0386 26.3518 86.1076 26.3173 86.1628C26.2828 86.2181 26.2328 86.2457 26.1672 86.2457C26.1016 86.2457 26.0516 86.2163 26.0171 86.1577C25.986 86.1025 25.9705 86.0352 25.9705 85.9558C25.9705 85.8764 25.9929 85.7453 26.0378 85.5625C26.0861 85.383 26.1103 85.2674 26.1103 85.2157C26.1103 85.1639 26.1103 85.1104 26.1103 85.0552C26.1103 85.0035 26.1085 84.95 26.1051 84.8948C26.1016 84.8396 26.093 84.7706 26.0792 84.6877C26.0516 84.5152 25.9688 84.429 25.8308 84.429C25.5754 84.429 25.4478 84.6808 25.4478 85.1846V85.4227C25.4478 85.5504 25.4788 85.7367 25.5409 85.9817C25.603 86.2267 25.6341 86.4027 25.6341 86.5096C25.6341 86.7753 25.5478 86.9082 25.3753 86.9082C25.289 86.9082 25.22 86.8719 25.1683 86.7995C25.12 86.727 25.0958 86.6338 25.0958 86.52C25.0958 86.4061 25.1234 86.2129 25.1786 85.9403C25.2373 85.6677 25.2666 85.4607 25.2666 85.3192V84.2892C24.2867 84.2444 23.5517 84.1012 23.0617 83.8596C22.206 83.4456 21.7661 82.6588 21.7419 81.4995C21.735 81.1786 21.7315 80.7007 21.7315 80.0658L21.7419 77.6746C21.7419 77.471 21.6746 77.3002 21.54 77.1622L21.6487 77.0586C21.7764 77.1898 21.9472 77.2553 22.1611 77.2553H23.9934C24.2038 77.2553 24.3746 77.1898 24.5058 77.0586L24.6145 77.1622C24.4833 77.2967 24.4178 77.4675 24.4178 77.6746L24.4281 80.3349C24.4281 80.849 24.4419 81.1751 24.4695 81.3131C24.4971 81.4512 24.5265 81.5788 24.5575 81.6961C24.592 81.81 24.6317 81.9014 24.6766 81.9705C24.7249 82.0395 24.7853 82.1137 24.8577 82.193C24.9302 82.2689 25.013 82.3276 25.1062 82.369C25.3235 82.4656 25.5357 82.5139 25.7428 82.5139C25.9533 82.5139 26.1154 82.5053 26.2293 82.488C26.3466 82.4673 26.4484 82.4363 26.5347 82.3949C26.6244 82.35 26.7037 82.3034 26.7728 82.2551C26.8452 82.2034 26.9056 82.1395 26.9539 82.0636C27.0057 81.9843 27.0505 81.9101 27.0885 81.8411C27.1264 81.7686 27.1558 81.6789 27.1765 81.5719C27.2006 81.465 27.2196 81.3718 27.2334 81.2924C27.2472 81.2096 27.2576 81.1061 27.2645 80.9819C27.2748 80.7921 27.28 80.5764 27.28 80.3349L27.2903 77.6746C27.2903 77.4641 27.2265 77.2933 27.0988 77.1622L27.1972 77.0586C27.3283 77.1898 27.5008 77.2553 27.7147 77.2553H29.547C29.7644 77.2553 29.9369 77.1898 30.0646 77.0586L30.1681 77.1622C30.0266 77.3071 29.9559 77.659 29.9559 78.218ZM27.0678 86.9392C27.0678 87.1014 27.0108 87.1825 26.897 87.1825C26.7831 87.1825 26.7262 87.0979 26.7262 86.9289C26.7262 86.7632 26.7503 86.6218 26.7986 86.5044C26.8504 86.3906 26.8814 86.3336 26.8918 86.3336C26.9022 86.3336 26.9211 86.3647 26.9487 86.4268C27.0281 86.6062 27.0678 86.777 27.0678 86.9392ZM33.6487 85.6711L33.7729 84.2685C33.7729 84.1581 33.7108 84.0667 33.5866 83.9942C33.383 83.8803 33.1346 83.8234 32.8413 83.8234C32.4479 83.8234 32.177 83.901 32.0287 84.0563C31.9631 84.1253 31.9303 84.2254 31.9303 84.3565C31.9303 84.4911 31.97 84.724 32.0494 85.0552C32.1287 85.3865 32.1684 85.6194 32.1684 85.754C32.1684 85.892 32.1425 86.0007 32.0908 86.08C32.0425 86.1628 31.97 86.2042 31.8734 86.2042C31.7768 86.2042 31.7026 86.1628 31.6508 86.08C31.5991 86.0007 31.5732 85.892 31.5732 85.754C31.5732 85.6159 31.6146 85.3778 31.6974 85.0397C31.7837 84.7015 31.8268 84.4462 31.8268 84.2737L31.8216 77.9282C31.8216 77.521 31.6974 77.1811 31.449 76.9085L31.5577 76.7999C31.8372 77.0483 32.177 77.1725 32.5773 77.1725H34.1249C34.3457 77.1725 34.532 77.1466 34.6838 77.0949C34.8391 77.0397 34.9633 76.9327 35.0565 76.774L35.2273 76.8568C35.1376 77.0707 35.0927 77.2726 35.0927 77.4624C35.0927 77.6176 35.3653 78.0075 35.9105 78.6321C36.6213 79.4464 37.0785 79.9933 37.2821 80.2728C37.4857 80.5523 37.6185 80.7783 37.6806 80.9508H37.9912C37.8221 80.7024 37.7375 80.3522 37.7375 79.9001C37.7375 79.6897 37.7634 79.3757 37.8152 78.9582C37.8669 78.5372 37.8928 78.2215 37.8928 78.011C37.8928 77.4451 37.7134 77.0776 37.3545 76.9085L37.4632 76.7999C37.7427 77.0483 38.0826 77.1725 38.4829 77.1725H39.5439C39.9442 77.1725 40.284 77.0483 40.5635 76.7999L40.667 76.9085C40.4221 77.1846 40.2996 77.5245 40.2996 77.9282L40.2892 84.2478C40.2892 84.3962 40.3237 84.617 40.3927 84.9103C40.4617 85.207 40.4962 85.4296 40.4962 85.578C40.4962 85.7988 40.4117 85.9092 40.2426 85.9092C40.0736 85.9092 39.989 85.7988 39.989 85.578C39.989 85.4331 40.0218 85.2191 40.0874 84.9362C40.1529 84.6567 40.1857 84.4635 40.1857 84.3565C40.1857 84.253 40.1512 84.1788 40.0822 84.1339C40.0132 84.0891 39.9459 84.0667 39.8803 84.0667H37.8359C37.546 84.0667 37.4011 84.3306 37.4011 84.8585C37.4011 85.0759 37.4408 85.3899 37.5202 85.8005C37.603 86.2146 37.6444 86.5269 37.6444 86.7374C37.6444 87.0375 37.5322 87.1876 37.308 87.1876C37.0837 87.1876 36.9715 87.0358 36.9715 86.7322C36.9715 86.5389 37.0147 86.2577 37.1009 85.8885C37.1906 85.5193 37.2372 85.2416 37.2407 85.0552L37.251 84.3668C37.2614 84.0459 37.2286 83.8372 37.1527 83.7406L34.6735 80.5989C34.6079 80.5126 34.5355 80.3332 34.4561 80.0606L34.1404 80.0709C34.3198 80.2573 34.4095 80.4643 34.4095 80.692V83.6474L34.5079 86.2664C34.5079 86.3216 34.4906 86.3681 34.4561 86.4061C34.425 86.4475 34.3802 86.4682 34.3215 86.4682C34.2663 86.4682 34.2197 86.4441 34.1818 86.3958C34.1438 86.3509 34.1249 86.2991 34.1249 86.2405L34.187 84.253C34.187 84.2116 34.1714 84.1736 34.1404 84.1391C34.1093 84.1046 34.0731 84.0874 34.0317 84.0874C33.942 84.0874 33.8971 84.1564 33.8971 84.2944C33.8971 84.4324 33.9195 84.6584 33.9644 84.9724C34.0127 85.2864 34.0369 85.5021 34.0369 85.6194C34.0369 85.8816 33.9713 86.0127 33.8402 86.0127C33.7125 86.0127 33.6487 85.8989 33.6487 85.6711ZM41.8548 78.513L41.8807 77.8505C41.8807 77.471 41.8065 77.2087 41.6581 77.0638L41.7616 76.9603C41.8996 77.0949 42.0704 77.1622 42.274 77.1622H49.0698C49.2803 77.1622 49.4528 77.0949 49.5874 76.9603L49.6909 77.0638C49.5598 77.1949 49.4942 77.3675 49.4942 77.5814L49.4684 78.2439C49.4684 78.6166 49.5425 78.8771 49.6909 79.0254L49.5874 79.1341C49.4321 78.9754 49.1802 78.896 48.8317 78.896L47.6879 78.9685C47.3256 78.9685 47.0651 78.8891 46.9063 78.7304L46.7977 78.8339C46.9322 78.9651 46.9995 79.1376 46.9995 79.3515V83.6474C46.9995 84.0063 47.0306 84.5411 47.0927 85.2519C47.1582 85.9627 47.191 86.4303 47.191 86.6545C47.191 87.0479 47.1203 87.2446 46.9788 87.2446C46.8373 87.2446 46.7666 87.1048 46.7666 86.8253C46.7666 86.5458 46.789 86.1663 46.8339 85.6867C46.8822 85.2105 46.9063 84.8516 46.9063 84.6101C46.9063 84.234 46.8322 84.0459 46.6838 84.0459C46.6113 84.0459 46.5544 84.0891 46.513 84.1753C46.4716 84.2616 46.4509 84.3461 46.4509 84.429L46.5699 85.5107C46.5699 85.7591 46.4992 85.8833 46.3577 85.8833C46.2852 85.8833 46.2318 85.8471 46.1973 85.7747C46.1628 85.7022 46.1455 85.6177 46.1455 85.521C46.1455 85.4244 46.1766 85.2657 46.2387 85.0449C46.3008 84.8275 46.3318 84.6498 46.3318 84.5118C46.3318 84.3737 46.2714 84.2685 46.1507 84.196C46.0334 84.1236 45.8833 84.0874 45.7004 84.0874C45.521 84.0874 45.3329 84.1236 45.1362 84.196C44.943 84.2685 44.7722 84.3806 44.6238 84.5325C44.4755 84.6877 44.4013 84.8396 44.4013 84.9879C44.4013 85.1398 44.4237 85.3226 44.4686 85.5366C44.5169 85.7505 44.541 85.9282 44.541 86.0697C44.541 86.2146 44.4772 86.2871 44.3495 86.2871C44.2046 86.2871 44.1321 86.2094 44.1321 86.0542C44.1321 85.9023 44.1597 85.7091 44.2149 85.4745C44.2701 85.2398 44.2977 85.0639 44.2977 84.9465V83.6008C44.3047 81.7099 44.3081 80.2935 44.3081 79.3515C44.3081 79.1341 44.3737 78.9616 44.5048 78.8339L44.4013 78.7304C44.2494 78.8857 43.9976 78.9633 43.6456 78.9633L42.5328 78.896C42.1774 78.896 41.9203 78.9754 41.7616 79.1341L41.6581 79.0254C41.7892 78.8943 41.8548 78.7235 41.8548 78.513ZM46.3163 86.6649C46.3991 87.0444 46.4405 87.374 46.4405 87.6535C46.4405 87.7742 46.3974 87.8346 46.3111 87.8346C46.2249 87.8346 46.1817 87.7794 46.1817 87.669C46.1817 87.3584 46.2266 87.0237 46.3163 86.6649ZM53.42 86.8564L53.4769 85.4796C53.4769 85.0345 53.4596 84.7533 53.4251 84.636C53.3941 84.5187 53.3613 84.4152 53.3268 84.3254C53.2923 84.2357 53.2474 84.1633 53.1922 84.1081C53.137 84.0528 53.0715 84.0011 52.9955 83.9528C52.8506 83.8562 52.6229 83.8079 52.3123 83.8079C52.0018 83.8079 51.7396 83.9338 51.5256 84.1857C51.3151 84.4376 51.2099 84.7395 51.2099 85.0915C51.2099 85.2226 51.2358 85.4175 51.2875 85.6763C51.3393 85.9386 51.3652 86.1352 51.3652 86.2664C51.3652 86.5148 51.2772 86.639 51.1012 86.639C50.9252 86.639 50.8372 86.5182 50.8372 86.2767C50.8372 86.1421 50.8631 85.9403 50.9149 85.6711C50.9701 85.402 50.9977 85.1984 50.9977 85.0604L51.0339 83.6733V77.5917C51.0339 77.3778 50.9666 77.2053 50.8321 77.0742L50.9356 76.9655C51.0805 77.1035 51.253 77.1725 51.4532 77.1725H53.3268C53.5338 77.1725 53.7064 77.1035 53.8444 76.9655L53.9479 77.0742C53.8133 77.2087 53.746 77.3813 53.746 77.5917V83.6474C53.746 83.8268 53.7271 84.1357 53.6891 84.5739C53.6511 85.0155 53.6391 85.3554 53.6529 85.5935H53.6477C53.7754 86.1663 53.8392 86.6028 53.8392 86.903C53.8392 87.2032 53.7823 87.3533 53.6684 87.3533C53.5028 87.3533 53.42 87.1876 53.42 86.8564ZM57.5682 85.6711L57.6925 84.2685C57.6925 84.1581 57.6304 84.0667 57.5061 83.9942C57.3026 83.8803 57.0541 83.8234 56.7608 83.8234C56.3675 83.8234 56.0966 83.901 55.9482 84.0563C55.8827 84.1253 55.8499 84.2254 55.8499 84.3565C55.8499 84.4911 55.8896 84.724 55.9689 85.0552C56.0483 85.3865 56.088 85.6194 56.088 85.754C56.088 85.892 56.0621 86.0007 56.0103 86.08C55.962 86.1628 55.8896 86.2042 55.793 86.2042C55.6963 86.2042 55.6221 86.1628 55.5704 86.08C55.5186 86.0007 55.4928 85.892 55.4928 85.754C55.4928 85.6159 55.5342 85.3778 55.617 85.0397C55.7032 84.7015 55.7464 84.4462 55.7464 84.2737L55.7412 77.9282C55.7412 77.521 55.617 77.1811 55.3685 76.9085L55.4772 76.7999C55.7567 77.0483 56.0966 77.1725 56.4969 77.1725H58.0444C58.2652 77.1725 58.4516 77.1466 58.6034 77.0949C58.7587 77.0397 58.8829 76.9327 58.9761 76.774L59.1469 76.8568C59.0571 77.0707 59.0123 77.2726 59.0123 77.4624C59.0123 77.6176 59.2849 78.0075 59.8301 78.6321C60.5409 79.4464 60.9981 79.9933 61.2016 80.2728C61.4052 80.5523 61.5381 80.7783 61.6002 80.9508H61.9107C61.7416 80.7024 61.6571 80.3522 61.6571 79.9001C61.6571 79.6897 61.683 79.3757 61.7347 78.9582C61.7865 78.5372 61.8124 78.2215 61.8124 78.011C61.8124 77.4451 61.633 77.0776 61.2741 76.9085L61.3828 76.7999C61.6623 77.0483 62.0022 77.1725 62.4024 77.1725H63.4635C63.8637 77.1725 64.2036 77.0483 64.4831 76.7999L64.5866 76.9085C64.3416 77.1846 64.2191 77.5245 64.2191 77.9282L64.2088 84.2478C64.2088 84.3962 64.2433 84.617 64.3123 84.9103C64.3813 85.207 64.4158 85.4296 64.4158 85.578C64.4158 85.7988 64.3313 85.9092 64.1622 85.9092C63.9931 85.9092 63.9086 85.7988 63.9086 85.578C63.9086 85.4331 63.9414 85.2191 64.0069 84.9362C64.0725 84.6567 64.1053 84.4635 64.1053 84.3565C64.1053 84.253 64.0708 84.1788 64.0017 84.1339C63.9327 84.0891 63.8654 84.0667 63.7999 84.0667H61.7555C61.4656 84.0667 61.3207 84.3306 61.3207 84.8585C61.3207 85.0759 61.3604 85.3899 61.4397 85.8005C61.5225 86.2146 61.5639 86.5269 61.5639 86.7374C61.5639 87.0375 61.4518 87.1876 61.2275 87.1876C61.0032 87.1876 60.8911 87.0358 60.8911 86.7322C60.8911 86.5389 60.9342 86.2577 61.0205 85.8885C61.1102 85.5193 61.1568 85.2416 61.1602 85.0552L61.1706 84.3668C61.1809 84.0459 61.1482 83.8372 61.0722 83.7406L58.593 80.5989C58.5275 80.5126 58.455 80.3332 58.3757 80.0606L58.0599 80.0709C58.2394 80.2573 58.3291 80.4643 58.3291 80.692V83.6474L58.4274 86.2664C58.4274 86.3216 58.4102 86.3681 58.3757 86.4061C58.3446 86.4475 58.2998 86.4682 58.2411 86.4682C58.1859 86.4682 58.1393 86.4441 58.1013 86.3958C58.0634 86.3509 58.0444 86.2991 58.0444 86.2405L58.1065 84.253C58.1065 84.2116 58.091 84.1736 58.0599 84.1391C58.0289 84.1046 57.9927 84.0874 57.9513 84.0874C57.8615 84.0874 57.8167 84.1564 57.8167 84.2944C57.8167 84.4324 57.8391 84.6584 57.884 84.9724C57.9323 85.2864 57.9564 85.5021 57.9564 85.6194C57.9564 85.8816 57.8909 86.0127 57.7597 86.0127C57.6321 86.0127 57.5682 85.8989 57.5682 85.6711Z" fill="black"/>
<path d="M72.2855 82.4622C72.1544 82.3586 72.0888 82.2379 72.0888 82.0999V82.0584C72.0888 81.9204 72.1509 81.7893 72.2751 81.6651L72.2027 81.5978C72.0784 81.722 71.9491 81.7841 71.8145 81.7841H71.3124C71.1019 81.7841 70.9294 81.8514 70.7949 81.986L70.6862 81.8773C70.8242 81.7393 70.8932 81.5685 70.8932 81.3649V80.5989C70.8932 80.3918 70.8242 80.2193 70.6862 80.0813L70.7949 79.9778C70.926 80.1089 71.0985 80.1745 71.3124 80.1745H74.4904C74.7043 80.1745 74.8768 80.1089 75.0079 79.9778L75.1063 80.0813C74.9752 80.2124 74.9096 80.3849 74.9096 80.5989V82.7675C74.9096 82.8745 74.9234 82.9608 74.951 83.0263C74.9821 83.0884 75.0424 83.1436 75.1322 83.1919L75.0493 83.342C74.9872 83.311 74.9165 83.2955 74.8371 83.2955C74.7612 83.2955 74.6732 83.3282 74.5732 83.3938C73.7727 83.9286 72.634 84.2288 71.1572 84.2944V84.7913L71.24 85.3658C71.24 85.4486 71.2227 85.5124 71.1882 85.5573C71.1537 85.6021 71.114 85.6246 71.0692 85.6246C71.0278 85.6246 70.9898 85.6039 70.9553 85.5625C70.9208 85.521 70.9035 85.4796 70.9035 85.4382C70.9035 85.4003 70.9104 85.3468 70.9242 85.2778C70.9657 85.0639 70.9864 84.8465 70.9864 84.6256C70.9864 84.4048 70.9708 84.2944 70.9398 84.2944C70.2635 84.2944 69.5527 84.2478 68.8074 84.1546C68.7763 84.1443 68.7608 84.3289 68.7608 84.7084C68.7608 85.088 68.7918 85.4796 68.8539 85.8833C68.9195 86.2871 68.9523 86.5683 68.9523 86.727C68.9523 87.0479 68.8539 87.2083 68.6573 87.2083C68.5641 87.2083 68.483 87.1721 68.414 87.0997C68.3484 87.0272 68.3157 86.9099 68.3157 86.7477C68.3157 86.589 68.3726 86.3026 68.4865 85.8885C68.6003 85.4779 68.6573 85.157 68.6573 84.9258V84.1184C66.687 83.6767 65.7019 82.488 65.7019 80.5523C65.7019 79.0789 66.3092 78.0489 67.5238 77.4624C68.2242 77.1208 69.0799 76.95 70.0909 76.95C71.723 76.95 72.9756 77.2691 73.8486 77.9075C74.3213 78.2525 74.6232 78.6459 74.7543 79.0875C74.8164 79.2946 74.9269 79.4533 75.0856 79.5637L75.0079 79.6672C74.8665 79.5637 74.6801 79.512 74.449 79.512L72.2648 79.5844C72.0474 79.5982 71.9007 79.681 71.8248 79.8329L71.654 79.75C71.6816 79.6914 71.6954 79.6241 71.6954 79.5482C71.6954 79.4723 71.6368 79.3567 71.5195 79.2014C71.4021 79.0427 71.24 78.9236 71.0329 78.8443C70.8294 78.7615 70.5585 78.7201 70.2203 78.7201C69.8856 78.7201 69.613 78.7684 69.4026 78.865C69.1921 78.9616 69.0247 79.0944 68.9005 79.2635C68.659 79.6051 68.5382 80.0571 68.5382 80.6196C68.5382 81.182 68.7176 81.6461 69.0765 82.0119C69.4388 82.3742 69.9115 82.5553 70.4947 82.5553C71.0778 82.5553 71.5212 82.5174 71.8248 82.4415C71.88 82.4277 71.9335 82.4208 71.9853 82.4208C72.037 82.4208 72.1164 82.4622 72.2234 82.545L72.2855 82.4622Z" fill="white"/>
<ellipse cx="146.794" cy="80.3333" rx="27.9365" ry="29.3333" fill="#ACFF40"/>
<path d="M125.281 86.5827L125.38 84.1242C124.327 83.9758 123.516 83.5963 122.947 82.9855C122.381 82.3748 122.098 81.5415 122.098 80.4856C122.098 79.3608 122.467 78.4964 123.206 77.8926C124.02 77.2197 125.229 76.8833 126.834 76.8833C129.405 76.8833 130.842 77.6217 131.145 79.0985C131.187 79.3125 131.278 79.4764 131.42 79.5902L131.332 79.7041C131.166 79.5799 130.987 79.5264 130.793 79.5437L128.801 79.6679C128.57 79.6851 128.42 79.7697 128.35 79.9215L128.18 79.8387C128.214 79.7628 128.231 79.6972 128.231 79.642C128.231 79.4626 128.171 79.3073 128.05 79.1762C127.933 79.0416 127.783 78.9415 127.6 78.876C127.245 78.7483 126.9 78.6845 126.565 78.6845C126.054 78.6845 125.656 78.8587 125.369 79.2072C125.086 79.5523 124.945 80.0026 124.945 80.5581C124.945 81.1102 125.105 81.5622 125.426 81.9142C125.751 82.2627 126.204 82.4369 126.787 82.4369C126.974 82.4369 127.181 82.3921 127.408 82.3023C127.64 82.2092 127.843 82.0763 128.019 81.9038C128.199 81.7313 128.288 81.5484 128.288 81.3552C128.288 81.3 128.269 81.231 128.231 81.1481L128.402 81.0602C128.485 81.2154 128.618 81.3 128.801 81.3138C128.987 81.3276 129.227 81.3465 129.52 81.3707C130.165 81.4294 130.614 81.4587 130.866 81.4587C131.118 81.4587 131.316 81.4052 131.461 81.2982L131.544 81.4069C131.416 81.5035 131.32 81.683 131.254 81.9452C131.192 82.204 131.07 82.4542 130.887 82.6957C130.704 82.9338 130.497 83.1322 130.266 83.2909C130.038 83.4462 129.772 83.5825 129.468 83.6998C128.947 83.9068 128.376 84.0535 127.755 84.1397C127.755 84.4572 127.797 84.9282 127.879 85.5527C127.962 86.1773 128.004 86.5931 128.004 86.8001C128.004 87.0071 127.978 87.1521 127.926 87.2349C127.878 87.3177 127.805 87.3591 127.709 87.3591C127.612 87.3591 127.538 87.3177 127.486 87.2349C127.434 87.1521 127.408 87.0192 127.408 86.8363C127.408 86.6569 127.436 86.3067 127.491 85.7856C127.55 85.2646 127.579 84.9161 127.579 84.7401C127.579 84.5642 127.571 84.4451 127.553 84.383C127.536 84.3209 127.515 84.2726 127.491 84.2381C127.467 84.207 127.426 84.1829 127.367 84.1656C127.233 84.1311 127.07 84.1225 126.881 84.1397C126.501 84.1708 126.311 84.2346 126.311 84.3313L126.435 85.7391C126.435 85.9633 126.37 86.0755 126.239 86.0755C126.108 86.0755 126.042 85.9806 126.042 85.7908C126.042 85.601 126.065 85.3492 126.109 85.0352C126.158 84.7212 126.182 84.4951 126.182 84.3571C126.182 84.2226 126.137 84.1553 126.047 84.1553C125.871 84.1553 125.752 84.1743 125.69 84.2122C125.631 84.2502 125.602 84.2847 125.602 84.3157L125.659 86.5568C125.659 86.6155 125.64 86.6673 125.602 86.7121C125.564 86.7604 125.518 86.7846 125.462 86.7846C125.407 86.7846 125.362 86.7639 125.328 86.7225C125.297 86.6845 125.281 86.6379 125.281 86.5827ZM137.136 84.8385L137.173 84.3416C137.173 84.2553 137.131 84.1881 137.048 84.1397C136.965 84.0949 136.876 84.0725 136.779 84.0725C136.683 84.0725 136.596 84.0983 136.52 84.1501C136.444 84.2019 136.406 84.276 136.406 84.3727V85.5631C136.406 85.7356 136.443 85.9892 136.515 86.3239C136.588 86.6586 136.624 86.8967 136.624 87.0382C136.624 87.1831 136.593 87.3021 136.531 87.3953C136.469 87.4885 136.382 87.5351 136.272 87.5351C136.165 87.5351 136.084 87.4868 136.029 87.3901C135.973 87.2935 135.946 87.1676 135.946 87.0123C135.946 86.857 135.986 86.5879 136.065 86.2049C136.144 85.8219 136.184 85.5251 136.184 85.3146C136.184 84.4624 136.025 84.0362 135.708 84.0362C135.28 84.0362 135.066 84.019 135.066 83.9845V83.9948C135.066 84.2329 135.118 84.5814 135.221 85.0403C135.328 85.5027 135.382 85.834 135.382 86.0341C135.382 86.2342 135.345 86.3981 135.273 86.5258C135.201 86.6569 135.088 86.7225 134.937 86.7225C134.788 86.7225 134.671 86.6604 134.585 86.5361C134.502 86.4119 134.46 86.2497 134.46 86.0496C134.46 85.8529 134.51 85.5131 134.61 85.03C134.711 84.5504 134.761 84.1863 134.761 83.9379C133.943 83.6791 133.327 83.2564 132.913 82.6698C132.502 82.0832 132.297 81.3586 132.297 80.496C132.297 78.7086 133.198 77.5803 134.999 77.111C135.582 76.9592 136.184 76.8833 136.805 76.8833C137.43 76.8833 137.959 76.9178 138.394 76.9868C138.832 77.0558 139.255 77.1783 139.662 77.3543C140.073 77.5268 140.421 77.7477 140.708 78.0168C140.997 78.2825 141.229 78.6275 141.401 79.052C141.574 79.4729 141.66 79.9543 141.66 80.496C141.66 81.6002 141.349 82.4559 140.728 83.0632C140.107 83.667 139.234 84.038 138.109 84.176C138.096 84.2001 138.089 84.2381 138.089 84.2898L138.115 84.5745C138.115 84.7505 138.066 84.8385 137.97 84.8385C137.873 84.8385 137.825 84.7539 137.825 84.5849L137.84 84.295C137.84 84.1915 137.766 84.1397 137.618 84.1397C137.604 84.1708 137.597 84.2295 137.597 84.3157L137.623 84.8178C137.623 84.9213 137.604 85.0214 137.566 85.118C137.528 85.2146 137.464 85.2629 137.374 85.2629C137.216 85.2629 137.136 85.1214 137.136 84.8385ZM135.18 80.5012C135.18 81.7641 135.78 82.3955 136.981 82.3955C138.182 82.3955 138.782 81.7641 138.782 80.5012C138.782 79.9215 138.627 79.4781 138.316 79.171C138.006 78.8639 137.561 78.7104 136.981 78.7104C136.401 78.7104 135.956 78.8639 135.646 79.171C135.335 79.4781 135.18 79.9215 135.18 80.5012ZM156.312 83.1408L156.23 82.499V82.4421C156.302 82.3144 156.4 82.2506 156.525 82.2506L160.748 82.2558C160.958 82.2558 161.129 82.1885 161.26 82.0539L161.364 82.1574C161.171 82.5128 161.074 83.1563 161.074 84.088C161.074 84.2329 161.105 84.5124 161.167 84.9265C161.233 85.344 161.266 85.62 161.266 85.7546C161.266 85.8926 161.243 85.9944 161.198 86.06C161.153 86.1255 161.1 86.1583 161.038 86.1583C160.976 86.1583 160.921 86.1221 160.872 86.0496C160.827 85.9771 160.805 85.8771 160.805 85.7494L160.888 84.6056C160.888 84.3019 160.834 84.0742 160.727 83.9224C160.62 83.7671 160.475 83.6895 160.293 83.6895C159.882 83.6895 159.677 83.9983 159.677 84.6159C159.677 84.854 159.711 85.1991 159.78 85.6511C159.853 86.1031 159.889 86.386 159.889 86.4999C159.889 86.6138 159.863 86.7 159.811 86.7587C159.759 86.8208 159.699 86.8519 159.63 86.8519C159.564 86.8519 159.506 86.8225 159.454 86.7639C159.406 86.7087 159.382 86.6327 159.382 86.5361L159.475 84.8851C159.475 84.2812 159.345 83.9793 159.087 83.9793L158.693 83.9896H154.625C154.318 83.9896 154.092 84.0483 153.947 84.1656C153.781 84.3036 153.699 84.6936 153.699 85.3354C153.699 85.5941 153.738 85.9754 153.818 86.4792C153.897 86.9864 153.937 87.3677 153.937 87.623C153.937 87.9923 153.806 88.1769 153.543 88.1769C153.26 88.1769 153.119 87.9871 153.119 87.6075C153.119 87.3487 153.176 86.9657 153.29 86.4585C153.404 85.9513 153.46 85.5665 153.46 85.3043L153.435 83.5704V77.5354C153.435 77.3215 153.369 77.1507 153.238 77.023L153.341 76.9144C153.483 77.0489 153.655 77.1162 153.859 77.1162H160.505C160.715 77.1162 160.888 77.0489 161.022 76.9144L161.126 77.023C160.974 77.1749 160.898 77.4716 160.898 77.9133V78.1462C160.898 78.5361 160.974 78.8035 161.126 78.9484L161.022 79.0468C160.85 78.8708 160.444 78.7828 159.806 78.7828L157.234 78.9019C156.599 78.9019 156.195 78.8139 156.022 78.6379L155.914 78.7414C156.048 78.8725 156.116 79.0468 156.116 79.2642C156.116 79.4781 156.048 79.6506 155.914 79.7817L156.022 79.8801C156.188 79.7076 156.537 79.6213 157.068 79.6213L159.237 79.7403C159.771 79.7403 160.125 79.6541 160.298 79.4815L160.406 79.5851C160.255 79.7369 160.179 80.0543 160.179 80.5374V80.7393C160.179 81.1085 160.255 81.369 160.406 81.5208L160.298 81.6295C160.132 81.457 159.782 81.3707 159.247 81.3707L157.078 81.4846C156.547 81.4846 156.195 81.3983 156.022 81.2258L155.919 81.3293C156.064 81.4777 156.136 81.7365 156.136 82.1057L156.126 82.5094L156.038 83.1305C156.038 83.2547 156.083 83.3168 156.173 83.3168C156.266 83.3168 156.312 83.2581 156.312 83.1408ZM171.112 85.6977L171.226 84.6263C171.226 84.1915 171.049 83.8603 170.693 83.6325C170.341 83.4013 169.97 83.2995 169.58 83.3271C169.19 83.3513 168.918 83.4824 168.763 83.7205C168.683 83.8344 168.644 83.9689 168.644 84.1242L168.618 85.5113C168.618 85.7011 168.647 85.9823 168.706 86.355C168.764 86.7311 168.794 87.014 168.794 87.2038C168.794 87.5385 168.699 87.7059 168.509 87.7059C168.319 87.7059 168.224 87.5437 168.224 87.2193C168.224 87.0054 168.255 86.6983 168.317 86.298C168.38 85.8978 168.414 85.5941 168.421 85.3871C168.431 85.1801 168.437 84.7384 168.437 84.0621C168.437 83.8827 168.381 83.6757 168.271 83.441C168.16 83.2064 167.986 82.8838 167.748 82.4731C167.51 82.0625 167.315 81.7002 167.163 81.3862L167.008 81.2982C166.925 81.4501 166.779 81.526 166.568 81.526L166.133 81.5415C165.837 81.5415 165.614 81.469 165.466 81.3241L165.357 81.4276C165.367 81.5553 165.372 81.8279 165.372 82.2454L165.367 83.5135C165.367 83.893 165.374 84.1725 165.388 84.352L165.486 85.1128C165.486 85.2543 165.438 85.325 165.341 85.325C165.245 85.325 165.196 85.2594 165.196 85.1283L165.279 84.4865C165.279 84.3313 165.233 84.207 165.14 84.1139C165.05 84.0242 164.931 83.9793 164.782 83.9793C164.637 83.9793 164.508 84.0431 164.394 84.1708C164.284 84.3019 164.229 84.471 164.229 84.678C164.229 84.8851 164.267 85.1646 164.342 85.5165C164.418 85.8719 164.456 86.1272 164.456 86.2825C164.456 86.6069 164.341 86.769 164.11 86.769C163.878 86.769 163.763 86.6103 163.763 86.2929C163.763 86.1445 163.796 85.8857 163.861 85.5165C163.93 85.1473 163.965 84.854 163.965 84.6366C163.965 84.4192 163.915 84.2398 163.815 84.0983C163.714 83.9603 163.601 83.8913 163.473 83.8913C163.345 83.8913 163.237 83.9344 163.147 84.0207C163.057 84.1104 163.012 84.2208 163.012 84.352L163.152 85.5786C163.152 85.7891 163.074 85.8943 162.919 85.8943C162.764 85.8943 162.686 85.7874 162.686 85.5734C162.686 85.4492 162.719 85.2318 162.785 84.9213C162.85 84.6142 162.881 84.3744 162.878 84.2019C162.874 84.0293 162.873 81.7968 162.873 77.5044C162.873 77.2905 162.807 77.1197 162.676 76.992L162.779 76.8885C162.914 77.0196 163.085 77.0852 163.292 77.0852H167.929C168.654 77.0852 169.14 77.1076 169.389 77.1524C169.641 77.1938 169.86 77.2387 170.046 77.287C170.236 77.3353 170.395 77.3957 170.522 77.4682C170.653 77.5372 170.785 77.6252 170.916 77.7321C171.05 77.8356 171.157 77.9547 171.237 78.0893C171.419 78.3964 171.511 78.7224 171.511 79.0675C171.511 79.4125 171.483 79.6955 171.428 79.9163C171.376 80.1337 171.288 80.339 171.164 80.5322C170.895 80.9497 170.422 81.1585 169.746 81.1585L169.705 81.2775C169.922 81.3638 170.067 81.4828 170.139 81.6347C170.443 82.2972 170.667 82.7181 170.812 82.8976C170.957 83.0735 171.092 83.215 171.216 83.322C171.34 83.4289 171.518 83.5376 171.749 83.648C171.98 83.7585 172.12 83.8309 172.168 83.8654C172.217 83.8965 172.241 83.9224 172.241 83.9431C172.241 84.2881 172.287 84.7315 172.38 85.2732C172.474 85.815 172.52 86.1635 172.52 86.3188C172.52 86.474 172.513 86.5862 172.499 86.6552C172.489 86.7242 172.463 86.7915 172.422 86.857C172.38 86.926 172.32 86.9605 172.241 86.9605C172.161 86.9605 172.101 86.9036 172.06 86.7897C172.022 86.6759 172.003 86.5361 172.003 86.3705C172.003 86.2049 172.025 85.9081 172.07 85.4803C172.115 85.0559 172.137 84.735 172.137 84.5176C172.137 84.0863 171.997 83.8706 171.718 83.8706C171.58 83.8706 171.476 83.8948 171.407 83.9431C171.342 83.9914 171.309 84.0897 171.309 84.2381C171.309 84.3899 171.34 84.6297 171.402 84.9575C171.464 85.2853 171.495 85.532 171.495 85.6977C171.495 85.8667 171.432 85.9513 171.304 85.9513C171.176 85.9513 171.112 85.8667 171.112 85.6977ZM167.665 78.8035L166.444 78.8397C165.944 78.8397 165.617 78.7656 165.466 78.6172L165.357 78.7155C165.495 78.8501 165.564 79.0226 165.564 79.2331V79.5799C165.564 79.7869 165.495 79.9594 165.357 80.0975L165.466 80.201C165.614 80.0492 165.921 79.9732 166.387 79.9732L167.696 80.0198C168.045 80.0198 168.314 79.975 168.504 79.8853C168.697 79.7921 168.794 79.623 168.794 79.378C168.794 79.2228 168.74 79.102 168.633 79.0157C168.526 78.926 168.397 78.8691 168.245 78.8449C168.093 78.8173 167.9 78.8035 167.665 78.8035Z" fill="black"/>
<path d="M145.85 85.2784L145.958 84.5435C145.958 84.0362 145.417 83.7826 144.333 83.7826C144.147 83.7826 144.017 83.8257 143.945 83.912C143.872 83.9983 143.836 84.1449 143.836 84.352C143.836 84.559 143.867 84.8454 143.929 85.2111C143.991 85.5803 144.023 85.8616 144.023 86.0548C144.023 86.2515 143.945 86.3498 143.79 86.3498C143.634 86.3498 143.557 86.2463 143.557 86.0393C143.557 85.8357 143.581 85.5269 143.629 85.1128C143.678 84.6987 143.702 84.4175 143.702 84.2691C143.702 83.9172 143.638 83.7412 143.51 83.7412C143.427 83.7412 143.386 83.8396 143.386 84.0362L143.51 84.8954C143.51 85.099 143.436 85.2008 143.288 85.2008C143.143 85.2008 143.07 85.0973 143.07 84.8902L143.189 83.9379L143.184 83.0787V77.5251C143.184 77.3112 143.117 77.1386 142.982 77.0075L143.086 76.8988C143.227 77.0368 143.4 77.1059 143.603 77.1059H147.879C149.942 77.1059 151.222 77.777 151.719 79.1192C151.857 79.4988 151.926 79.9042 151.926 80.3355C151.926 80.7634 151.898 81.1326 151.843 81.4432C151.791 81.7503 151.724 82.0211 151.641 82.2558C151.558 82.4869 151.441 82.6923 151.289 82.8717C151.141 83.0511 150.991 83.2029 150.839 83.3271C150.691 83.4479 150.501 83.5514 150.27 83.6377C150.039 83.724 149.825 83.7912 149.628 83.8396C149.431 83.8844 149.185 83.9189 148.888 83.9431C148.422 83.981 147.875 84 147.247 84H146.497C146.207 84 146.062 84.207 146.062 84.6211L146.145 85.2836C146.145 85.4147 146.1 85.4803 146.01 85.4803C145.903 85.4803 145.85 85.413 145.85 85.2784ZM148.815 81.7175C148.922 81.5795 149.005 81.4018 149.064 81.1844C149.122 80.9635 149.152 80.6996 149.152 80.3925C149.152 80.0819 149.1 79.8231 148.996 79.6161C148.893 79.4091 148.755 79.2573 148.582 79.1606C148.41 79.064 148.218 78.9933 148.008 78.9484C147.797 78.9001 147.577 78.8743 147.345 78.8708C147.114 78.8639 146.899 78.8587 146.698 78.8553C146.208 78.8484 145.894 78.7759 145.756 78.6379L145.653 78.7414C145.784 78.8691 145.85 79.0416 145.85 79.259V80.4494C145.85 81.243 145.853 81.8365 145.86 82.2299H147.035C147.625 82.2299 148.042 82.1781 148.287 82.0746C148.536 81.9711 148.712 81.8521 148.815 81.7175ZM146.181 87.1106C146.181 87.2694 146.122 87.3487 146.005 87.3487C145.891 87.3487 145.834 87.2832 145.834 87.1521C145.834 87.0244 145.841 86.9122 145.855 86.8156C145.872 86.719 145.9 86.5948 145.938 86.443C145.976 86.2946 145.998 86.2014 146.005 86.1635C146.015 86.2083 146.034 86.2825 146.062 86.386C146.089 86.493 146.11 86.5758 146.124 86.6345C146.162 86.7966 146.181 86.9554 146.181 87.1106Z" fill="white"/>
<path d="M33.8168 143.009C35.1866 144.898 36.6344 146.722 38.1789 148.492C51.9506 164.495 73.4195 174.808 95.4451 175.043C117.511 175.528 139.028 165.989 153.925 151.165C155.617 149.508 157.18 147.838 158.732 146.065C156.71 147.275 154.734 148.383 152.686 149.482C134.454 159.248 115.001 164.39 95.6281 164.044C76.2754 163.729 56.9602 158.024 39.5448 146.91C37.6081 145.673 35.7053 144.38 33.8168 143.009Z" fill="#602D3E"/>
<mask id="mask0_1339_481" style="mask-type:alpha" maskUnits="userSpaceOnUse" x="33" y="143" width="126" height="33">
<path d="M33.8168 143.009C35.1866 144.898 36.6344 146.722 38.1789 148.492C51.9506 164.495 73.4195 174.808 95.4451 175.043C117.511 175.528 139.028 165.989 153.925 151.165C155.617 149.508 157.18 147.838 158.732 146.065C156.71 147.275 154.734 148.383 152.686 149.482C134.454 159.248 115.001 164.39 95.6281 164.044C76.2754 163.729 56.9602 158.024 39.5448 146.91C37.6081 145.673 35.7053 144.38 33.8168 143.009Z" fill="#602D3E"/>
</mask>
<g mask="url(#mask0_1339_481)">
<path d="M53.6927 157.139L54.0842 155.793C54.139 155.605 54.2135 155.422 54.3064 155.249L54.4018 155.072C54.5586 154.78 54.7853 154.532 55.0616 154.35L55.0688 154.345C55.2201 154.245 55.3847 154.167 55.5577 154.113C55.7948 154.038 56.0477 154.01 56.2954 154.03C56.5406 154.05 56.7838 154.115 57.0052 154.222L57.1528 154.294C57.3649 154.396 57.5635 154.525 57.7439 154.677L57.7897 154.715C58.0624 154.944 58.2966 155.216 58.4833 155.519L58.5824 155.68C58.7573 155.964 58.9 156.267 59.008 156.582L59.3316 157.527L59.842 158.947C59.9471 159.454 60 159.97 60 160.488V160.98L59.9514 162.564V162.742C59.9514 162.991 59.9203 163.239 59.8587 163.48L59.8317 163.586C59.7821 163.78 59.706 163.967 59.6056 164.141L59.5492 164.239C59.4695 164.377 59.3681 164.501 59.2491 164.607C59.1346 164.709 59.0052 164.793 58.8653 164.855L58.8516 164.861C58.6473 164.953 58.426 165 58.2021 165H57.4479H55.8924L54.7787 164.853C54.6151 164.832 54.4566 164.781 54.3109 164.703C54.1594 164.623 54.0242 164.515 53.9123 164.385L53.8146 164.271C53.6933 164.13 53.5906 163.974 53.5091 163.807L53.412 163.608C53.2675 163.312 53.1612 162.998 53.0956 162.675L53.0858 162.627C53.0287 162.347 53 162.061 53 161.774V161.601C53 161.297 53.0231 160.993 53.0691 160.692L53.1944 159.874L53.401 158.753L53.6927 157.139Z" fill="url(#paint0_linear_1339_481)"/>
<path d="M43.6927 153.139L44.0842 151.793C44.139 151.605 44.2135 151.422 44.3064 151.249L44.4018 151.072C44.5586 150.78 44.7853 150.532 45.0616 150.35L45.0688 150.345C45.2201 150.245 45.3847 150.167 45.5577 150.113C45.7948 150.038 46.0477 150.01 46.2954 150.03C46.5406 150.05 46.7838 150.115 47.0052 150.222L47.1528 150.294C47.3649 150.396 47.5635 150.525 47.7439 150.677L47.7897 150.715C48.0624 150.944 48.2966 151.216 48.4833 151.519L48.5824 151.68C48.7573 151.964 48.9 152.267 49.008 152.582L49.3316 153.527L49.842 154.947C49.9471 155.454 50 155.97 50 156.488V156.98L49.9514 158.564V158.742C49.9514 158.991 49.9203 159.239 49.8587 159.48L49.8317 159.586C49.7821 159.78 49.706 159.967 49.6056 160.141L49.5492 160.239C49.4695 160.377 49.3681 160.501 49.2491 160.607C49.1346 160.709 49.0052 160.793 48.8653 160.855L48.8516 160.861C48.6473 160.953 48.426 161 48.2021 161H47.4479H45.8924L44.7787 160.853C44.6151 160.832 44.4566 160.781 44.3109 160.703C44.1594 160.623 44.0242 160.515 43.9123 160.385L43.8146 160.271C43.6933 160.13 43.5906 159.974 43.5091 159.807L43.412 159.608C43.2675 159.312 43.1612 158.998 43.0956 158.675L43.0858 158.627C43.0287 158.347 43 158.061 43 157.774V157.601C43 157.297 43.0231 156.993 43.0691 156.692L43.1944 155.874L43.401 154.753L43.6927 153.139Z" fill="url(#paint1_linear_1339_481)"/>
<path d="M36.5602 145.172L37.4231 144.067C37.5439 143.913 37.6807 143.771 37.8311 143.645L37.9854 143.516C38.2393 143.303 38.5419 143.157 38.8662 143.09L38.8746 143.088C39.0522 143.051 39.2341 143.04 39.4149 143.054C39.6627 143.072 39.9078 143.14 40.1305 143.251C40.351 143.36 40.5526 143.511 40.7184 143.692L40.829 143.814C40.9878 143.988 41.1244 144.181 41.2357 144.389L41.264 144.441C41.4322 144.755 41.5489 145.094 41.6098 145.445L41.6421 145.631C41.6991 145.96 41.7194 146.294 41.7026 146.627L41.6524 147.625L41.5996 149.133C41.5091 149.642 41.3667 150.141 41.1746 150.622L40.9921 151.079L40.3591 152.532L40.293 152.697C40.2006 152.928 40.0797 153.147 39.9331 153.348L39.8688 153.436C39.7505 153.599 39.6105 153.744 39.4527 153.868L39.3642 153.938C39.2389 154.036 39.0987 154.114 38.9488 154.169C38.8047 154.221 38.6534 154.25 38.5003 154.257L38.4854 154.257C38.2617 154.266 38.0386 154.228 37.8308 154.145L37.1304 153.865L35.6859 153.288L34.7062 152.738C34.5622 152.658 34.4339 152.552 34.3274 152.426C34.2166 152.295 34.1312 152.144 34.0755 151.982L34.027 151.84C33.9667 151.664 33.9293 151.481 33.9156 151.295L33.8993 151.075C33.875 150.746 33.8925 150.416 33.9513 150.092L33.9601 150.043C34.0113 149.761 34.0906 149.485 34.1969 149.219L34.2612 149.058C34.3741 148.776 34.5083 148.502 34.6626 148.24L35.0827 147.526L35.6905 146.562L36.5602 145.172Z" fill="url(#paint2_linear_1339_481)"/>
<path d="M63.8906 160.995L64.3933 159.284C64.4642 159.043 64.5605 158.81 64.6805 158.589L64.8 158.369C65.0031 157.995 65.3001 157.674 65.6563 157.441C65.8517 157.314 66.0662 157.212 66.2892 157.143C66.5936 157.049 66.9132 157.013 67.231 157.038L67.2413 157.039C67.5569 157.063 67.8651 157.146 68.1506 157.283L68.3382 157.373C68.6117 157.504 68.8679 157.669 69.1011 157.863L69.1569 157.909C69.5084 158.202 69.8106 158.548 70.052 158.937L70.1764 159.137C70.4018 159.499 70.5861 159.886 70.7256 160.289L71.1406 161.489L71.6592 162.917C71.7509 163.169 71.8245 163.428 71.8796 163.691C71.9596 164.074 72 164.463 72 164.854V165.883L71.9375 167.899V168.125C71.9375 168.443 71.8974 168.759 71.8182 169.066L71.7841 169.198C71.72 169.447 71.6218 169.686 71.4923 169.908L71.4214 170.029C71.3182 170.206 71.1874 170.365 71.0338 170.501C70.8871 170.63 70.7215 170.736 70.5427 170.815L70.5227 170.824C70.2605 170.94 69.9769 171 69.6901 171H68.7188H66.7188L65.2852 170.813C65.0759 170.786 64.8731 170.721 64.6863 170.623C64.4909 170.52 64.3163 170.382 64.1715 170.215L64.0483 170.073C63.8917 169.893 63.7591 169.693 63.6535 169.479L63.5303 169.229C63.3442 168.851 63.2071 168.452 63.1225 168.039L63.1105 167.981C63.037 167.623 63 167.259 63 166.894V166.674C63 166.287 63.0297 165.9 63.0889 165.518L63.25 164.476L63.5156 163.049L63.8906 160.995Z" fill="url(#paint3_linear_1339_481)"/>
<path d="M75.8906 163.995L76.3933 162.284C76.4642 162.043 76.5605 161.81 76.6805 161.589L76.8 161.369C77.0031 160.995 77.3001 160.674 77.6563 160.441C77.8517 160.314 78.0662 160.212 78.2892 160.143C78.5936 160.049 78.9132 160.013 79.231 160.038L79.2413 160.039C79.5569 160.063 79.8651 160.146 80.1506 160.283L80.3382 160.373C80.6117 160.504 80.8679 160.669 81.1011 160.863L81.1569 160.909C81.5084 161.202 81.8106 161.548 82.052 161.937L82.1764 162.137C82.4018 162.499 82.5861 162.886 82.7256 163.289L83.1406 164.489L83.6592 165.917C83.7509 166.169 83.8245 166.428 83.8796 166.691C83.9596 167.074 84 167.463 84 167.854V168.883L83.9375 170.899V171.125C83.9375 171.443 83.8974 171.759 83.8182 172.066L83.7841 172.198C83.72 172.447 83.6218 172.686 83.4923 172.908L83.4214 173.029C83.3182 173.206 83.1874 173.365 83.0338 173.501C82.8871 173.63 82.7215 173.736 82.5427 173.815L82.5227 173.824C82.2605 173.94 81.9769 174 81.6901 174H80.7188H78.7188L77.2852 173.813C77.0759 173.786 76.8731 173.721 76.6863 173.623C76.4909 173.52 76.3163 173.382 76.1715 173.215L76.0483 173.073C75.8917 172.893 75.7591 172.693 75.6535 172.479L75.5303 172.229C75.3442 171.851 75.2071 171.452 75.1225 171.039L75.1105 170.981C75.037 170.623 75 170.259 75 169.894V169.674C75 169.287 75.0297 168.9 75.0889 168.518L75.25 167.476L75.5156 166.049L75.8906 163.995Z" fill="url(#paint4_linear_1339_481)"/>
<path d="M87.8906 165.995L88.3933 164.284C88.4642 164.043 88.5605 163.81 88.6805 163.589L88.8 163.369C89.0031 162.995 89.3001 162.674 89.6563 162.441C89.8517 162.314 90.0662 162.212 90.2892 162.143C90.5936 162.049 90.9132 162.013 91.231 162.038L91.2413 162.039C91.5569 162.063 91.8651 162.146 92.1506 162.283L92.3382 162.373C92.6117 162.504 92.8679 162.669 93.1011 162.863L93.1569 162.909C93.5084 163.202 93.8106 163.548 94.052 163.937L94.1764 164.137C94.4018 164.499 94.5861 164.886 94.7256 165.289L95.1406 166.489L95.6592 167.917C95.7509 168.169 95.8245 168.428 95.8796 168.691C95.9596 169.074 96 169.463 96 169.854V170.883L95.9375 172.899V173.125C95.9375 173.443 95.8974 173.759 95.8182 174.066L95.7841 174.198C95.72 174.447 95.6218 174.686 95.4923 174.908L95.4214 175.029C95.3182 175.206 95.1874 175.365 95.0338 175.501C94.8871 175.63 94.7215 175.736 94.5427 175.815L94.5227 175.824C94.2605 175.94 93.9769 176 93.6901 176H92.7188H90.7188L89.2852 175.813C89.0759 175.786 88.8731 175.721 88.6863 175.623C88.4909 175.52 88.3163 175.382 88.1715 175.215L88.0483 175.073C87.8917 174.893 87.7591 174.693 87.6535 174.479L87.5303 174.229C87.3442 173.851 87.2071 173.452 87.1225 173.039L87.1105 172.981C87.037 172.623 87 172.259 87 171.894V171.674C87 171.287 87.0297 170.9 87.0889 170.518L87.25 169.476L87.5156 168.049L87.8906 165.995Z" fill="url(#paint5_linear_1339_481)"/>
<path d="M99.8906 165.995L100.393 164.284C100.464 164.043 100.56 163.81 100.68 163.589L100.8 163.369C101.003 162.995 101.3 162.674 101.656 162.441C101.852 162.314 102.066 162.212 102.289 162.143C102.594 162.049 102.913 162.013 103.231 162.038L103.241 162.039C103.557 162.063 103.865 162.146 104.151 162.283L104.338 162.373C104.612 162.504 104.868 162.669 105.101 162.863L105.157 162.909C105.508 163.202 105.811 163.548 106.052 163.937L106.176 164.137C106.402 164.499 106.586 164.886 106.726 165.289L107.141 166.489L107.659 167.917C107.751 168.169 107.824 168.428 107.88 168.691C107.96 169.074 108 169.463 108 169.854V170.883L107.937 172.899V173.125C107.937 173.443 107.897 173.759 107.818 174.066L107.784 174.198C107.72 174.447 107.622 174.686 107.492 174.908L107.421 175.029C107.318 175.206 107.187 175.365 107.034 175.501C106.887 175.63 106.721 175.736 106.543 175.815L106.523 175.824C106.26 175.94 105.977 176 105.69 176H104.719H102.719L101.285 175.813C101.076 175.786 100.873 175.721 100.686 175.623C100.491 175.52 100.316 175.382 100.171 175.215L100.048 175.073C99.8917 174.893 99.759 174.693 99.6535 174.479L99.5302 174.229C99.3442 173.851 99.2071 173.452 99.1224 173.039L99.1104 172.981C99.037 172.623 99 172.259 99 171.894V171.674C99 171.287 99.0297 170.9 99.0888 170.518L99.25 169.476L99.5156 168.049L99.8906 165.995Z" fill="url(#paint6_linear_1339_481)"/>
<path d="M111.891 164.995L112.393 163.284C112.464 163.043 112.56 162.81 112.68 162.589L112.8 162.369C113.003 161.995 113.3 161.674 113.656 161.441C113.852 161.314 114.066 161.212 114.289 161.143C114.594 161.049 114.913 161.013 115.231 161.038L115.241 161.039C115.557 161.063 115.865 161.146 116.151 161.283L116.338 161.373C116.612 161.504 116.868 161.669 117.101 161.863L117.157 161.909C117.508 162.202 117.811 162.548 118.052 162.937L118.176 163.137C118.402 163.499 118.586 163.886 118.726 164.289L119.141 165.489L119.659 166.917C119.751 167.169 119.824 167.428 119.88 167.691C119.96 168.074 120 168.463 120 168.854V169.883L119.937 171.899V172.125C119.937 172.443 119.897 172.759 119.818 173.066L119.784 173.198C119.72 173.447 119.622 173.686 119.492 173.908L119.421 174.029C119.318 174.206 119.187 174.365 119.034 174.501C118.887 174.63 118.721 174.736 118.543 174.815L118.523 174.824C118.26 174.94 117.977 175 117.69 175H116.719H114.719L113.285 174.813C113.076 174.786 112.873 174.721 112.686 174.623C112.491 174.52 112.316 174.382 112.171 174.215L112.048 174.073C111.892 173.893 111.759 173.693 111.654 173.479L111.53 173.229C111.344 172.851 111.207 172.452 111.122 172.039L111.11 171.981C111.037 171.623 111 171.259 111 170.894V170.674C111 170.287 111.03 169.9 111.089 169.518L111.25 168.476L111.516 167.049L111.891 164.995Z" fill="url(#paint7_linear_1339_481)"/>
<path d="M123.891 160.995L124.393 159.284C124.464 159.043 124.56 158.81 124.68 158.589L124.8 158.369C125.003 157.995 125.3 157.674 125.656 157.441C125.852 157.314 126.066 157.212 126.289 157.143C126.594 157.049 126.913 157.013 127.231 157.038L127.241 157.039C127.557 157.063 127.865 157.146 128.151 157.283L128.338 157.373C128.612 157.504 128.868 157.669 129.101 157.863L129.157 157.909C129.508 158.202 129.811 158.548 130.052 158.937L130.176 159.137C130.402 159.499 130.586 159.886 130.726 160.289L131.141 161.489L131.659 162.917C131.751 163.169 131.824 163.428 131.88 163.691C131.96 164.074 132 164.463 132 164.854V165.883L131.937 167.899V168.125C131.937 168.443 131.897 168.759 131.818 169.066L131.784 169.198C131.72 169.447 131.622 169.686 131.492 169.908L131.421 170.029C131.318 170.206 131.187 170.365 131.034 170.501C130.887 170.63 130.721 170.736 130.543 170.815L130.523 170.824C130.26 170.94 129.977 171 129.69 171H128.719H126.719L125.285 170.813C125.076 170.786 124.873 170.721 124.686 170.623C124.491 170.52 124.316 170.382 124.171 170.215L124.048 170.073C123.892 169.893 123.759 169.693 123.654 169.479L123.53 169.229C123.344 168.851 123.207 168.452 123.122 168.039L123.11 167.981C123.037 167.623 123 167.259 123 166.894V166.674C123 166.287 123.03 165.9 123.089 165.518L123.25 164.476L123.516 163.049L123.891 160.995Z" fill="url(#paint8_linear_1339_481)"/>
<path d="M135.891 156.995L136.393 155.284C136.464 155.043 136.56 154.81 136.68 154.589L136.8 154.369C137.003 153.995 137.3 153.674 137.656 153.441C137.852 153.314 138.066 153.212 138.289 153.143C138.594 153.049 138.913 153.013 139.231 153.038L139.241 153.039C139.557 153.063 139.865 153.146 140.151 153.283L140.338 153.373C140.612 153.504 140.868 153.669 141.101 153.863L141.157 153.909C141.508 154.202 141.811 154.548 142.052 154.937L142.176 155.137C142.402 155.499 142.586 155.886 142.726 156.289L143.141 157.489L143.659 158.917C143.751 159.169 143.824 159.428 143.88 159.691C143.96 160.074 144 160.463 144 160.854V161.883L143.937 163.899V164.125C143.937 164.443 143.897 164.759 143.818 165.066L143.784 165.198C143.72 165.447 143.622 165.686 143.492 165.908L143.421 166.029C143.318 166.206 143.187 166.365 143.034 166.501C142.887 166.63 142.721 166.736 142.543 166.815L142.523 166.824C142.26 166.94 141.977 167 141.69 167H140.719H138.719L137.285 166.813C137.076 166.786 136.873 166.721 136.686 166.623C136.491 166.52 136.316 166.382 136.171 166.215L136.048 166.073C135.892 165.893 135.759 165.693 135.654 165.479L135.53 165.229C135.344 164.851 135.207 164.452 135.122 164.039L135.11 163.981C135.037 163.623 135 163.259 135 162.894V162.674C135 162.287 135.03 161.9 135.089 161.518L135.25 160.476L135.516 159.049L135.891 156.995Z" fill="url(#paint9_linear_1339_481)"/>
<path d="M147.891 151.995L148.393 150.284C148.464 150.043 148.56 149.81 148.68 149.589L148.8 149.369C149.003 148.995 149.3 148.674 149.656 148.441C149.852 148.314 150.066 148.212 150.289 148.143C150.594 148.049 150.913 148.013 151.231 148.038L151.241 148.039C151.557 148.063 151.865 148.146 152.151 148.283L152.338 148.373C152.612 148.504 152.868 148.669 153.101 148.863L153.157 148.909C153.508 149.202 153.811 149.548 154.052 149.937L154.176 150.137C154.402 150.499 154.586 150.886 154.726 151.289L155.141 152.489L155.659 153.917C155.751 154.169 155.824 154.428 155.88 154.691C155.96 155.074 156 155.463 156 155.854V156.883L155.937 158.899V159.125C155.937 159.443 155.897 159.759 155.818 160.066L155.784 160.198C155.72 160.447 155.622 160.686 155.492 160.908L155.421 161.029C155.318 161.206 155.187 161.365 155.034 161.501C154.887 161.63 154.721 161.736 154.543 161.815L154.523 161.824C154.26 161.94 153.977 162 153.69 162H152.719H150.719L149.285 161.813C149.076 161.786 148.873 161.721 148.686 161.623C148.491 161.52 148.316 161.382 148.171 161.215L148.048 161.073C147.892 160.893 147.759 160.693 147.654 160.479L147.53 160.229C147.344 159.851 147.207 159.452 147.122 159.039L147.11 158.981C147.037 158.623 147 158.259 147 157.894V157.674C147 157.287 147.03 156.9 147.089 156.518L147.25 155.476L147.516 154.049L147.891 151.995Z" fill="url(#paint10_linear_1339_481)"/>
</g>
<path d="M53.8931 159.461C53.8979 159.303 53.9734 159.354 54.0162 159.382C54.017 159.382 54.0178 159.383 54.0186 159.383C54.0287 159.39 54.0373 159.39 54.0475 159.391C54.0719 159.392 54.1043 159.394 54.1912 159.48C54.2112 159.473 54.2321 159.468 54.2542 159.464C54.2782 159.46 54.3033 159.458 54.3306 159.456C54.5687 159.439 54.9814 159.502 55.3347 159.69C55.3599 159.709 55.3848 159.728 55.4089 159.748C55.4126 159.748 55.4165 159.747 55.4203 159.747C55.4943 159.745 55.5878 159.746 55.6306 159.815C55.6847 159.902 55.7155 159.98 55.7395 160.047C55.8754 160.177 55.9955 160.288 56.2246 160.481C56.3186 160.568 56.4287 160.669 56.5472 160.818C56.6615 160.958 56.7743 161.163 56.8284 161.338C56.8785 161.493 56.8944 161.61 56.9004 161.582C56.901 161.585 56.9017 161.587 56.9023 161.59C56.9501 161.659 56.9991 161.732 57.0397 161.807C57.0969 161.912 57.1371 162.023 57.1387 162.12C57.1312 162.275 57.1228 162.387 56.9237 162.699C56.8705 162.758 56.8052 162.818 56.7371 162.873C56.7088 162.896 56.6804 162.918 56.6532 162.938C56.5431 163.088 56.3578 163.236 56.2468 163.311C56.2332 163.303 56.2198 163.295 56.2066 163.286C56.0668 163.187 56.0151 163.185 56.0215 163.183C55.9829 163.2 55.9421 163.216 55.9002 163.23C55.7708 163.275 55.6313 163.296 55.5296 163.288C55.4644 163.282 55.4437 163.213 55.4263 163.158C55.4214 163.142 55.4171 163.126 55.4129 163.114C55.3988 163.071 55.3844 163.117 55.3691 163.17C55.3596 163.204 55.35 163.241 55.3415 163.261C55.1501 163.285 54.8835 163.197 54.7618 163.056C54.5805 162.843 54.5957 162.759 54.5727 162.708C54.5587 162.658 54.548 162.644 54.53 162.64C54.4954 162.634 54.437 162.677 54.3913 162.72C54.3646 162.746 54.3429 162.772 54.3352 162.792C54.3265 162.815 54.3335 162.834 54.3525 162.85C54.352 162.838 54.3786 162.803 54.4126 162.763C54.4539 162.713 54.3973 162.746 54.3397 162.802C54.3177 162.824 54.3168 162.824 54.3164 162.824C54.316 162.825 54.3158 162.826 54.2963 162.854C54.2917 162.861 54.2875 162.867 54.2836 162.873C54.4303 163.024 54.4443 163.043 54.4675 163.081C54.4857 163.112 54.4895 163.131 54.4915 163.148C54.4926 163.159 54.4923 163.168 54.4911 163.177C54.4876 163.206 54.4762 163.227 54.4543 163.246C54.4285 163.268 54.3876 163.287 54.3385 163.313C54.3261 163.303 54.3117 163.293 54.2947 163.281C54.2744 163.291 54.2083 163.235 54.1873 163.244C54.2517 163.228 54.2541 163.181 54.2818 163.144C54.2894 163.133 54.3048 163.093 54.3245 163.027L54.3711 163.035C54.3588 162.961 54.3716 162.863 54.3779 162.738C54.393 162.494 54.4195 162.177 54.4609 161.851C54.5024 161.524 54.554 161.21 54.6128 160.972C54.6416 160.85 54.6792 160.755 54.6978 160.686C54.7026 160.692 54.7316 160.686 54.7361 160.692C54.78 160.631 54.8221 160.596 54.8571 160.591C54.9778 160.575 55.0768 160.557 55.226 160.574L55.1347 160.542C55.1365 160.534 55.1421 160.528 55.1498 160.523C55.2257 160.499 55.2878 160.448 55.6484 160.613C55.7105 160.645 55.7869 160.684 55.9057 160.776C55.9834 160.839 56.0534 160.911 56.1102 160.981C56.1176 160.991 56.1248 161 56.1318 161.009C56.2463 161.017 56.3502 161.03 56.4073 161.049C56.4191 161.058 56.43 161.067 56.4401 161.076C56.5501 161.176 56.5507 161.26 56.5428 161.315C56.5368 161.352 56.5257 161.377 56.5315 161.38C56.5343 161.381 56.5392 161.379 56.5362 161.363C56.5292 161.342 56.5238 161.302 56.4136 161.173C56.356 161.11 56.2653 161.016 56.0933 160.915C55.9261 160.815 55.6546 160.726 55.4072 160.724C55.432 160.729 55.4456 160.742 55.4429 160.77C55.4408 160.806 55.4098 160.873 55.3514 160.947C55.2848 161.03 55.1954 161.13 55.1314 161.172C55.1434 161.17 55.1518 161.166 55.1568 161.158C55.2043 161.087 55.2464 161.112 55.2135 161.166C55.1841 161.217 55.1288 161.289 55.0598 161.277C54.9732 161.263 54.9505 161.325 54.9477 161.391C54.9459 161.431 54.9513 161.473 54.952 161.503C54.9389 161.529 54.9294 161.551 54.9219 161.57C54.8697 161.72 54.9226 161.748 54.9517 161.789C54.9987 161.839 55.0393 161.854 54.9628 161.882C54.8788 161.915 54.8305 161.965 54.8605 161.987C54.8606 161.986 54.8607 161.985 54.8608 161.985C54.8664 161.95 54.8598 161.927 54.8551 161.919C54.8488 161.907 54.8467 161.921 54.8822 161.937C54.9115 161.95 54.9795 161.953 55.0386 161.949C55.057 161.948 55.0746 161.946 55.0902 161.945C55.0967 161.963 55.1045 161.982 55.113 162C55.1057 162.008 55.0976 162.017 55.0895 162.026C55.0484 162.073 55.0039 162.137 54.9972 162.187C54.9871 162.266 55.0464 162.273 55.0924 162.262C55.1291 162.254 55.1597 162.238 55.1636 162.254C55.1654 162.261 55.1626 162.274 55.1584 162.289C55.1582 162.299 55.1573 162.309 55.1558 162.319C55.1498 162.359 55.1378 162.395 55.1475 162.373C55.1512 162.365 55.1666 162.328 55.1811 162.291C55.1812 162.29 55.1813 162.29 55.1814 162.29C55.1823 162.287 55.1833 162.285 55.1843 162.282C55.1644 162.307 55.1355 162.332 55.1043 162.36C55.0993 162.369 55.0945 162.378 55.0897 162.387C55.0662 162.431 55.0438 162.474 55.0195 162.537C54.9932 162.606 54.9673 162.643 54.9395 162.682C54.9215 162.708 54.9028 162.735 54.8844 162.772C54.8737 162.794 54.8778 162.752 54.8812 162.709C54.8846 162.669 54.8873 162.628 54.879 162.637C54.8748 162.641 54.868 162.657 54.8609 162.674C54.8546 162.69 54.8481 162.706 54.8427 162.715C54.8378 162.724 54.8353 162.701 54.8315 162.671C54.8298 162.657 54.8276 162.641 54.825 162.626C54.8251 162.622 54.8254 162.618 54.8258 162.615C54.8193 162.64 54.8334 162.667 54.8445 162.691C54.8445 162.727 54.8439 162.774 54.8428 162.835C54.8419 162.878 54.8407 162.93 54.84 162.983C54.8389 163.055 54.8384 163.13 54.8406 163.189C54.8423 163.236 54.8461 163.255 54.8492 163.235C54.8506 163.226 54.8519 163.21 54.853 163.194C54.8543 163.177 54.8553 163.161 54.8563 163.162C54.8569 163.162 54.8574 163.174 54.858 163.189C54.8591 163.214 54.8605 163.245 54.8633 163.246C54.8735 163.25 54.8831 163.24 54.8898 163.23C54.8973 163.219 54.9011 163.208 54.9043 163.217C54.9081 163.227 54.9068 163.181 54.8998 163.135C54.8952 163.103 54.8882 163.072 54.8832 163.059C54.8781 163.047 54.8771 163.073 54.8763 163.098C54.876 163.106 54.8757 163.113 54.8753 163.12C54.8709 163.14 54.8645 163.149 54.8525 163.12C54.8493 163.113 54.8391 163.064 54.8261 163.002C54.8168 162.959 54.8062 162.909 54.7957 162.863C54.7818 162.866 54.7667 162.866 54.7509 162.865C54.7515 162.872 54.7521 162.878 54.7527 162.886C54.7527 162.886 54.7527 162.886 54.7528 162.886C54.7662 163.045 54.7859 163.263 54.7392 163.139C54.7273 163.107 54.7129 163.048 54.6999 162.995C54.6871 162.942 54.6757 162.895 54.6692 162.886C54.6618 162.875 54.6609 162.909 54.66 162.946C54.6587 162.997 54.6573 163.055 54.6369 163.005C54.6355 163.002 54.634 162.998 54.6325 162.994C54.6178 162.959 54.5959 162.907 54.5642 162.799C54.5222 162.776 54.4784 162.749 54.4329 162.718C54.376 162.68 54.3178 162.638 54.2514 162.594C54.2315 162.579 54.2116 162.564 54.1916 162.549C54.1531 162.519 54.0958 162.375 54.0328 162.139C54.0013 162.021 53.9698 161.885 53.9407 161.739C53.9262 161.666 53.9124 161.59 53.8997 161.513C53.8933 161.474 53.8873 161.435 53.8813 161.395C53.8781 161.376 53.8754 161.356 53.8702 161.336C53.8689 161.332 53.8684 161.326 53.8584 161.324C53.8545 161.332 53.838 161.291 53.8022 161.387C53.8421 161.514 53.8653 161.459 53.8674 161.475C53.8832 161.487 53.8787 161.496 53.8801 161.506C53.8774 161.516 53.8879 161.528 53.8582 161.535C53.8525 161.535 53.846 161.536 53.8269 161.531C53.8191 161.524 53.7315 161.515 53.727 161.378C53.7936 161.192 53.8238 161.261 53.8308 161.237C53.8486 161.227 53.8486 161.223 53.8486 161.217C53.8502 161.197 53.8483 161.177 53.8464 161.157C53.8423 161.117 53.8372 161.078 53.8322 161.039C53.8222 160.961 53.8123 160.885 53.8032 160.811C53.7849 160.663 53.7699 160.525 53.7599 160.403C53.7399 160.161 53.7419 160.007 53.7648 159.967C53.7768 159.947 53.789 159.926 53.8014 159.906C53.8205 159.863 53.8457 159.82 53.872 159.779C53.8733 159.772 53.8747 159.765 53.8762 159.758C53.8871 159.711 53.8892 159.618 53.8914 159.525C53.8919 159.504 53.8924 159.482 53.8931 159.461Z" fill="black"/>
<defs>
<linearGradient id="paint0_linear_1339_481" x1="59.1128" y1="157.378" x2="51.1933" y2="165.204" gradientUnits="userSpaceOnUse">
<stop offset="0.14" stop-color="#FDFFFE"/>
<stop offset="0.47" stop-color="#CCD1E5"/>
<stop offset="1" stop-color="#D3D7E2"/>
</linearGradient>
<linearGradient id="paint1_linear_1339_481" x1="49.1128" y1="153.378" x2="41.1933" y2="161.204" gradientUnits="userSpaceOnUse">
<stop offset="0.14" stop-color="#FDFFFE"/>
<stop offset="0.47" stop-color="#CCD1E5"/>
<stop offset="1" stop-color="#D3D7E2"/>
</linearGradient>
<linearGradient id="paint2_linear_1339_481" x1="41.5047" y1="147.405" x2="31.2465" y2="151.734" gradientUnits="userSpaceOnUse">
<stop offset="0.14" stop-color="#FDFFFE"/>
<stop offset="0.47" stop-color="#CCD1E5"/>
<stop offset="1" stop-color="#D3D7E2"/>
</linearGradient>
<linearGradient id="paint3_linear_1339_481" x1="70.8594" y1="161.299" x2="60.7793" y2="171.362" gradientUnits="userSpaceOnUse">
<stop offset="0.14" stop-color="#FDFFFE"/>
<stop offset="0.47" stop-color="#CCD1E5"/>
<stop offset="1" stop-color="#D3D7E2"/>
</linearGradient>
<linearGradient id="paint4_linear_1339_481" x1="82.8594" y1="164.299" x2="72.7793" y2="174.362" gradientUnits="userSpaceOnUse">
<stop offset="0.14" stop-color="#FDFFFE"/>
<stop offset="0.47" stop-color="#CCD1E5"/>
<stop offset="1" stop-color="#D3D7E2"/>
</linearGradient>
<linearGradient id="paint5_linear_1339_481" x1="94.8594" y1="166.299" x2="84.7793" y2="176.362" gradientUnits="userSpaceOnUse">
<stop offset="0.14" stop-color="#FDFFFE"/>
<stop offset="0.47" stop-color="#CCD1E5"/>
<stop offset="1" stop-color="#D3D7E2"/>
</linearGradient>
<linearGradient id="paint6_linear_1339_481" x1="106.859" y1="166.299" x2="96.7793" y2="176.362" gradientUnits="userSpaceOnUse">
<stop offset="0.14" stop-color="#FDFFFE"/>
<stop offset="0.47" stop-color="#CCD1E5"/>
<stop offset="1" stop-color="#D3D7E2"/>
</linearGradient>
<linearGradient id="paint7_linear_1339_481" x1="118.859" y1="165.299" x2="108.779" y2="175.362" gradientUnits="userSpaceOnUse">
<stop offset="0.14" stop-color="#FDFFFE"/>
<stop offset="0.47" stop-color="#CCD1E5"/>
<stop offset="1" stop-color="#D3D7E2"/>
</linearGradient>
<linearGradient id="paint8_linear_1339_481" x1="130.859" y1="161.299" x2="120.779" y2="171.362" gradientUnits="userSpaceOnUse">
<stop offset="0.14" stop-color="#FDFFFE"/>
<stop offset="0.47" stop-color="#CCD1E5"/>
<stop offset="1" stop-color="#D3D7E2"/>
</linearGradient>
<linearGradient id="paint9_linear_1339_481" x1="142.859" y1="157.299" x2="132.779" y2="167.362" gradientUnits="userSpaceOnUse">
<stop offset="0.14" stop-color="#FDFFFE"/>
<stop offset="0.47" stop-color="#CCD1E5"/>
<stop offset="1" stop-color="#D3D7E2"/>
</linearGradient>
<linearGradient id="paint10_linear_1339_481" x1="154.859" y1="152.299" x2="144.779" y2="162.362" gradientUnits="userSpaceOnUse">
<stop offset="0.14" stop-color="#FDFFFE"/>
<stop offset="0.47" stop-color="#CCD1E5"/>
<stop offset="1" stop-color="#D3D7E2"/>
</linearGradient>
<pattern id="pattern0_1339_481" patternUnits="userSpaceOnUse" patternTransform="matrix(35.1944 0 0 12.432 83.1998 98.3546)" preserveAspectRatio="none" viewBox="3.93176 11.1818 47.56 16.8" width="1" height="1">
<g id="pattern0_1339_481_inner">
<path d="M4.89539 11.1818H5.85903V12.1455H4.89539V11.1818ZM5.85903 12.1455H6.82266V13.1091H5.85903V12.1455ZM5.85903 13.1091H6.82266V14.0727H5.85903V13.1091ZM5.85903 14.0727H6.82266V15.0364H5.85903V14.0727ZM4.89539 15.0364H5.85903V16H4.89539V15.0364ZM3.93175 14.0727H4.89539V15.0364H3.93175V14.0727ZM3.93175 13.1091H4.89539V14.0727H3.93175V13.1091ZM3.93175 12.1455H4.89539V13.1091H3.93175V12.1455ZM3.93175 11.1818H4.89539V12.1455H3.93175V11.1818ZM5.85903 11.1818H6.82266V12.1455H5.85903V11.1818ZM5.85903 15.0364H6.82266V16H5.85903V15.0364ZM3.93175 15.0364H4.89539V16H3.93175V15.0364Z" fill="#0AFF01" fill-opacity="0.42"/>
<path d="M33.6988 11.1818H34.6624V12.1455H33.6988V11.1818ZM34.6624 11.1818H35.6261V12.1455H34.6624V11.1818ZM34.6624 12.1455H35.6261V13.1091H34.6624V12.1455ZM34.6624 13.1091H35.6261V14.0727H34.6624V13.1091ZM34.6624 14.0727H35.6261V15.0364H34.6624V14.0727ZM34.6624 15.0364H35.6261V16H34.6624V15.0364Z" fill="#0AFF01" fill-opacity="0.42"/>
</g>
</pattern></defs>
</svg>
