<svg width="189" height="180" viewBox="0 0 189 180" fill="none" xmlns="http://www.w3.org/2000/svg" xmlns:xlink="http://www.w3.org/1999/xlink">
<circle cx="92" cy="90" r="90" fill="black"/>
<circle cx="92" cy="90" r="90" fill="url(#pattern0_1335_410)" style="mix-blend-mode:difference"/>
<circle cx="40.5" cy="75.5" r="27.5" fill="#ACFF40"/>
<path d="M16.5722 74.9588L16.655 73.7787C16.655 73.4268 16.574 73.1697 16.4118 73.0075L16.5153 72.8988C16.6568 73.0368 16.8293 73.1059 17.0329 73.1059H18.8599C19.067 73.1059 19.2395 73.0368 19.3775 72.8988L19.481 73.0075C19.3465 73.1421 19.2792 73.3146 19.2792 73.5251V79.5808C19.2792 79.7878 19.3465 79.9603 19.481 80.0983L19.3775 80.2019C19.2429 80.0673 19.0704 80 18.8599 80H17.0329C16.8224 80 16.6499 80.0673 16.5153 80.2019L16.4118 80.0983C16.5429 79.9672 16.6085 79.7947 16.6085 79.5808L16.5981 77.8417C16.5981 77.6347 16.6637 77.4639 16.7948 77.3293L16.6913 77.2258C16.5602 77.3569 16.3876 77.4225 16.1737 77.4225H14.0516C13.8411 77.4225 13.6686 77.3569 13.5341 77.2258L13.4305 77.3293C13.4374 77.4087 13.4409 77.8262 13.4409 78.5818V80.9161C13.4409 81.2301 13.4806 81.6752 13.5599 82.2515C13.6393 82.8277 13.679 83.2349 13.679 83.4729C13.679 83.711 13.6496 83.8732 13.591 83.9595C13.5358 84.0457 13.4685 84.0889 13.3891 84.0889C13.3098 84.0889 13.2408 84.0457 13.1821 83.9595C13.1269 83.8767 13.0993 83.7904 13.0993 83.7007C13.0993 83.6144 13.1165 83.4126 13.151 83.0951C13.2546 82.1359 13.3063 81.4147 13.3063 80.9316C13.3063 80.6936 13.2339 80.4865 13.0889 80.3105C12.806 79.9689 12.4178 79.7981 11.9244 79.7981C11.6725 79.7981 11.4603 79.8568 11.2878 79.9741C11.1187 80.0914 11.0341 80.2536 11.0341 80.4606C11.0341 80.6711 11.0669 80.9782 11.1325 81.3819C11.2015 81.7856 11.236 82.0651 11.236 82.2204C11.236 82.5413 11.1359 82.7018 10.9358 82.7018C10.8426 82.7018 10.7633 82.6655 10.6977 82.5931C10.6322 82.5241 10.5994 82.4085 10.5994 82.2463C10.5994 82.0876 10.6546 81.8012 10.765 81.3871C10.8789 80.973 10.9358 80.6504 10.9358 80.4192V73.5251C10.9358 73.3077 10.8702 73.1352 10.7391 73.0075L10.8375 72.8988C10.9789 73.0368 11.1515 73.1059 11.355 73.1059H13.2132C13.4167 73.1059 13.5875 73.0368 13.7256 72.8988L13.8342 73.0075C13.6755 73.1662 13.5962 73.425 13.5962 73.7839L13.6738 74.9743C13.6738 75.3297 13.5927 75.5885 13.4305 75.7507L13.5341 75.8594C13.6686 75.7248 13.8411 75.6575 14.0516 75.6575H16.1944C16.4049 75.6575 16.5757 75.7248 16.7068 75.8594L16.8155 75.7507C16.6533 75.5851 16.5722 75.3211 16.5722 74.9588ZM29.2813 74.1514L29.3278 76.7962C29.3278 77.7175 29.214 78.3921 28.9862 78.8199C28.7723 79.2271 28.4669 79.5325 28.0701 79.736C27.6181 79.9707 27.0177 80.1225 26.269 80.1915V81.1594L26.3207 81.6925C26.3207 81.8098 26.2879 81.8685 26.2224 81.8685C26.1568 81.8685 26.124 81.7546 26.124 81.5269L26.1551 80.6832C26.1551 80.3105 26.0395 80.1242 25.8083 80.1242C25.6289 80.1242 25.5392 80.2709 25.5392 80.5642C25.5392 80.5642 25.5478 80.7143 25.565 81.0145C25.565 81.118 25.5858 81.2681 25.6272 81.4647C25.672 81.6649 25.6944 81.8063 25.6944 81.8892C25.6944 81.972 25.6772 82.041 25.6427 82.0962C25.6082 82.1514 25.5581 82.179 25.4926 82.179C25.427 82.179 25.377 82.1497 25.3425 82.091C25.3114 82.0358 25.2959 81.9685 25.2959 81.8892C25.2959 81.8098 25.3183 81.6787 25.3632 81.4958C25.4115 81.3164 25.4357 81.2008 25.4357 81.149C25.4357 81.0973 25.4357 81.0438 25.4357 80.9886C25.4357 80.9368 25.4339 80.8833 25.4305 80.8281C25.427 80.7729 25.4184 80.7039 25.4046 80.6211C25.377 80.4486 25.2942 80.3623 25.1562 80.3623C24.9008 80.3623 24.7732 80.6142 24.7732 81.118V81.3561C24.7732 81.4837 24.8042 81.6701 24.8663 81.915C24.9284 82.16 24.9595 82.336 24.9595 82.443C24.9595 82.7087 24.8732 82.8415 24.7007 82.8415C24.6144 82.8415 24.5454 82.8053 24.4937 82.7328C24.4454 82.6604 24.4212 82.5672 24.4212 82.4533C24.4212 82.3395 24.4488 82.1462 24.504 81.8736C24.5627 81.601 24.592 81.394 24.592 81.2525V80.2226C23.6121 80.1777 22.8771 80.0345 22.3871 79.793C21.5314 79.3789 21.0914 78.5922 21.0673 77.4328C21.0604 77.1119 21.0569 76.634 21.0569 75.9991L21.0673 73.6079C21.0673 73.4043 21 73.2335 20.8654 73.0955L20.9741 72.992C21.1018 73.1231 21.2726 73.1887 21.4865 73.1887H23.3188C23.5292 73.1887 23.7 73.1231 23.8312 72.992L23.9399 73.0955C23.8087 73.2301 23.7432 73.4009 23.7432 73.6079L23.7535 76.2683C23.7535 76.7824 23.7673 77.1085 23.7949 77.2465C23.8225 77.3845 23.8519 77.5122 23.8829 77.6295C23.9174 77.7434 23.9571 77.8348 24.002 77.9038C24.0503 77.9728 24.1107 78.047 24.1831 78.1264C24.2556 78.2023 24.3384 78.2609 24.4316 78.3023C24.6489 78.399 24.8611 78.4473 25.0682 78.4473C25.2787 78.4473 25.4408 78.4386 25.5547 78.4214C25.672 78.4007 25.7738 78.3696 25.8601 78.3282C25.9498 78.2834 26.0291 78.2368 26.0982 78.1885C26.1706 78.1367 26.231 78.0729 26.2793 77.997C26.3311 77.9176 26.3759 77.8434 26.4139 77.7744C26.4518 77.702 26.4812 77.6122 26.5019 77.5053C26.526 77.3983 26.545 77.3051 26.5588 77.2258C26.5726 77.143 26.583 77.0395 26.5899 76.9152C26.6002 76.7255 26.6054 76.5098 26.6054 76.2683L26.6157 73.6079C26.6157 73.3974 26.5519 73.2266 26.4242 73.0955L26.5226 72.992C26.6537 73.1231 26.8262 73.1887 27.0401 73.1887H28.8724C29.0898 73.1887 29.2623 73.1231 29.39 72.992L29.4935 73.0955C29.352 73.2404 29.2813 73.5924 29.2813 74.1514ZM26.3932 82.8726C26.3932 83.0347 26.3362 83.1158 26.2224 83.1158C26.1085 83.1158 26.0516 83.0313 26.0516 82.8622C26.0516 82.6966 26.0757 82.5551 26.124 82.4378C26.1758 82.3239 26.2068 82.267 26.2172 82.267C26.2275 82.267 26.2465 82.298 26.2741 82.3602C26.3535 82.5396 26.3932 82.7104 26.3932 82.8726ZM32.9741 81.6045L33.0983 80.2019C33.0983 80.0914 33.0362 80 32.912 79.9275C32.7084 79.8137 32.46 79.7567 32.1667 79.7567C31.7733 79.7567 31.5024 79.8344 31.3541 79.9896C31.2885 80.0587 31.2557 80.1587 31.2557 80.2898C31.2557 80.4244 31.2954 80.6573 31.3748 80.9886C31.4541 81.3198 31.4938 81.5527 31.4938 81.6873C31.4938 81.8253 31.4679 81.934 31.4162 82.0134C31.3679 82.0962 31.2954 82.1376 31.1988 82.1376C31.1022 82.1376 31.028 82.0962 30.9762 82.0134C30.9245 81.934 30.8986 81.8253 30.8986 81.6873C30.8986 81.5493 30.94 81.3112 31.0228 80.973C31.1091 80.6349 31.1522 80.3796 31.1522 80.207L31.147 73.8615C31.147 73.4544 31.0228 73.1145 30.7744 72.8419L30.8831 72.7332C31.1626 72.9816 31.5024 73.1059 31.9027 73.1059H33.4502C33.6711 73.1059 33.8574 73.08 34.0092 73.0282C34.1645 72.973 34.2887 72.866 34.3819 72.7073L34.5527 72.7901C34.463 73.0041 34.4181 73.2059 34.4181 73.3957C34.4181 73.551 34.6907 73.9409 35.2359 74.5654C35.9467 75.3798 36.4039 75.9267 36.6075 76.2062C36.8111 76.4856 36.9439 76.7117 37.006 76.8842H37.3166C37.1475 76.6357 37.0629 76.2855 37.0629 75.8335C37.0629 75.623 37.0888 75.309 37.1406 74.8915C37.1923 74.4705 37.2182 74.1548 37.2182 73.9443C37.2182 73.3785 37.0388 73.011 36.6799 72.8419L36.7886 72.7332C37.0681 72.9816 37.408 73.1059 37.8083 73.1059H38.8693C39.2696 73.1059 39.6094 72.9816 39.8889 72.7332L39.9924 72.8419C39.7475 73.1179 39.625 73.4578 39.625 73.8615L39.6146 80.1812C39.6146 80.3295 39.6491 80.5504 39.7181 80.8437C39.7871 81.1404 39.8216 81.363 39.8216 81.5113C39.8216 81.7322 39.7371 81.8426 39.568 81.8426C39.3989 81.8426 39.3144 81.7322 39.3144 81.5113C39.3144 81.3664 39.3472 81.1525 39.4127 80.8695C39.4783 80.59 39.5111 80.3968 39.5111 80.2898C39.5111 80.1863 39.4766 80.1121 39.4076 80.0673C39.3386 80.0224 39.2713 80 39.2057 80H37.1613C36.8714 80 36.7265 80.264 36.7265 80.7919C36.7265 81.0093 36.7662 81.3233 36.8456 81.7339C36.9284 82.1479 36.9698 82.4602 36.9698 82.6707C36.9698 82.9709 36.8576 83.121 36.6334 83.121C36.4091 83.121 36.2969 82.9692 36.2969 82.6655C36.2969 82.4723 36.3401 82.1911 36.4263 81.8219C36.516 81.4527 36.5626 81.1749 36.5661 80.9886L36.5764 80.3002C36.5868 79.9793 36.554 79.7705 36.4781 79.6739L33.9989 76.5322C33.9333 76.446 33.8609 76.2665 33.7815 75.9939L33.4658 76.0043C33.6452 76.1906 33.7349 76.3977 33.7349 76.6254V79.5808L33.8333 82.1997C33.8333 82.2549 33.816 82.3015 33.7815 82.3395C33.7504 82.3809 33.7056 82.4016 33.6469 82.4016C33.5917 82.4016 33.5451 82.3774 33.5072 82.3291C33.4692 82.2842 33.4502 82.2325 33.4502 82.1738L33.5124 80.1863C33.5124 80.1449 33.4968 80.107 33.4658 80.0725C33.4347 80.038 33.3985 80.0207 33.3571 80.0207C33.2674 80.0207 33.2225 80.0897 33.2225 80.2277C33.2225 80.3658 33.2449 80.5918 33.2898 80.9058C33.3381 81.2198 33.3623 81.4354 33.3623 81.5527C33.3623 81.815 33.2967 81.9461 33.1656 81.9461C33.0379 81.9461 32.9741 81.8322 32.9741 81.6045ZM41.1802 74.4464L41.2061 73.7839C41.2061 73.4043 41.1319 73.1421 40.9835 72.9972L41.087 72.8937C41.225 73.0282 41.3958 73.0955 41.5994 73.0955H48.3952C48.6057 73.0955 48.7782 73.0282 48.9128 72.8937L49.0163 72.9972C48.8852 73.1283 48.8196 73.3008 48.8196 73.5147L48.7937 74.1772C48.7937 74.5499 48.8679 74.8104 49.0163 74.9588L48.9128 75.0675C48.7575 74.9088 48.5056 74.8294 48.1571 74.8294L47.0133 74.9019C46.651 74.9019 46.3905 74.8225 46.2317 74.6638L46.123 74.7673C46.2576 74.8984 46.3249 75.0709 46.3249 75.2849V79.5808C46.3249 79.9396 46.356 80.4744 46.4181 81.1853C46.4836 81.8961 46.5164 82.3636 46.5164 82.5879C46.5164 82.9813 46.4457 83.1779 46.3042 83.1779C46.1627 83.1779 46.092 83.0382 46.092 82.7587C46.092 82.4792 46.1144 82.0996 46.1593 81.62C46.2076 81.1438 46.2317 80.785 46.2317 80.5435C46.2317 80.1674 46.1576 79.9793 46.0092 79.9793C45.9367 79.9793 45.8798 80.0224 45.8384 80.1087C45.797 80.195 45.7763 80.2795 45.7763 80.3623L45.8953 81.444C45.8953 81.6925 45.8246 81.8167 45.6831 81.8167C45.6106 81.8167 45.5572 81.7805 45.5227 81.708C45.4881 81.6355 45.4709 81.551 45.4709 81.4544C45.4709 81.3578 45.502 81.1991 45.5641 80.9782C45.6262 80.7608 45.6572 80.5831 45.6572 80.4451C45.6572 80.3071 45.5968 80.2019 45.4761 80.1294C45.3588 80.0569 45.2087 80.0207 45.0258 80.0207C44.8464 80.0207 44.6583 80.0569 44.4616 80.1294C44.2684 80.2019 44.0976 80.314 43.9492 80.4658C43.8008 80.6211 43.7267 80.7729 43.7267 80.9213C43.7267 81.0731 43.7491 81.256 43.7939 81.4699C43.8423 81.6839 43.8664 81.8616 43.8664 82.003C43.8664 82.1479 43.8026 82.2204 43.6749 82.2204C43.53 82.2204 43.4575 82.1428 43.4575 81.9875C43.4575 81.8357 43.4851 81.6424 43.5403 81.4078C43.5955 81.1732 43.6231 80.9972 43.6231 80.8799V79.5342C43.63 77.6433 43.6335 76.2269 43.6335 75.2849C43.6335 75.0675 43.6991 74.895 43.8302 74.7673L43.7267 74.6638C43.5748 74.819 43.3229 74.8967 42.971 74.8967L41.8582 74.8294C41.5028 74.8294 41.2457 74.9088 41.087 75.0675L40.9835 74.9588C41.1146 74.8277 41.1802 74.6569 41.1802 74.4464ZM45.6417 82.5982C45.7245 82.9778 45.7659 83.3073 45.7659 83.5868C45.7659 83.7076 45.7228 83.768 45.6365 83.768C45.5503 83.768 45.5071 83.7128 45.5071 83.6023C45.5071 83.2918 45.552 82.9571 45.6417 82.5982ZM52.7454 82.7897L52.8023 81.413C52.8023 80.9679 52.785 80.6867 52.7505 80.5693C52.7195 80.452 52.6867 80.3485 52.6522 80.2588C52.6177 80.1691 52.5728 80.0966 52.5176 80.0414C52.4624 79.9862 52.3969 79.9344 52.3209 79.8861C52.176 79.7895 51.9483 79.7412 51.6377 79.7412C51.3272 79.7412 51.065 79.8672 50.851 80.119C50.6405 80.3709 50.5353 80.6729 50.5353 81.0248C50.5353 81.1559 50.5612 81.3509 50.6129 81.6097C50.6647 81.8719 50.6906 82.0686 50.6906 82.1997C50.6906 82.4481 50.6026 82.5724 50.4266 82.5724C50.2506 82.5724 50.1626 82.4516 50.1626 82.2101C50.1626 82.0755 50.1885 81.8736 50.2403 81.6045C50.2955 81.3354 50.3231 81.1318 50.3231 80.9938L50.3593 79.6066V73.5251C50.3593 73.3112 50.292 73.1386 50.1575 73.0075L50.261 72.8988C50.4059 73.0368 50.5784 73.1059 50.7786 73.1059H52.6522C52.8592 73.1059 53.0317 73.0368 53.1698 72.8988L53.2733 73.0075C53.1387 73.1421 53.0714 73.3146 53.0714 73.5251V79.5808C53.0714 79.7602 53.0525 80.069 53.0145 80.5072C52.9765 80.9489 52.9645 81.2888 52.9783 81.5269H52.9731C53.1008 82.0996 53.1646 82.5361 53.1646 82.8363C53.1646 83.1365 53.1077 83.2866 52.9938 83.2866C52.8282 83.2866 52.7454 83.121 52.7454 82.7897ZM56.8936 81.6045L57.0179 80.2019C57.0179 80.0914 56.9558 80 56.8315 79.9275C56.628 79.8137 56.3795 79.7567 56.0862 79.7567C55.6929 79.7567 55.422 79.8344 55.2736 79.9896C55.2081 80.0587 55.1753 80.1587 55.1753 80.2898C55.1753 80.4244 55.215 80.6573 55.2943 80.9886C55.3737 81.3198 55.4134 81.5527 55.4134 81.6873C55.4134 81.8253 55.3875 81.934 55.3357 82.0134C55.2874 82.0962 55.215 82.1376 55.1183 82.1376C55.0217 82.1376 54.9475 82.0962 54.8958 82.0134C54.844 81.934 54.8182 81.8253 54.8182 81.6873C54.8182 81.5493 54.8596 81.3112 54.9424 80.973C55.0286 80.6349 55.0718 80.3796 55.0718 80.207L55.0666 73.8615C55.0666 73.4544 54.9424 73.1145 54.6939 72.8419L54.8026 72.7332C55.0821 72.9816 55.422 73.1059 55.8223 73.1059H57.3698C57.5906 73.1059 57.777 73.08 57.9288 73.0282C58.0841 72.973 58.2083 72.866 58.3015 72.7073L58.4723 72.7901C58.3825 73.0041 58.3377 73.2059 58.3377 73.3957C58.3377 73.551 58.6103 73.9409 59.1555 74.5654C59.8663 75.3798 60.3235 75.9267 60.527 76.2062C60.7306 76.4856 60.8635 76.7117 60.9256 76.8842H61.2361C61.067 76.6357 60.9825 76.2855 60.9825 75.8335C60.9825 75.623 61.0084 75.309 61.0601 74.8915C61.1119 74.4705 61.1378 74.1548 61.1378 73.9443C61.1378 73.3785 60.9584 73.011 60.5995 72.8419L60.7082 72.7332C60.9877 72.9816 61.3276 73.1059 61.7278 73.1059H62.7889C63.1891 73.1059 63.529 72.9816 63.8085 72.7332L63.912 72.8419C63.667 73.1179 63.5445 73.4578 63.5445 73.8615L63.5342 80.1812C63.5342 80.3295 63.5687 80.5504 63.6377 80.8437C63.7067 81.1404 63.7412 81.363 63.7412 81.5113C63.7412 81.7322 63.6567 81.8426 63.4876 81.8426C63.3185 81.8426 63.234 81.7322 63.234 81.5113C63.234 81.3664 63.2668 81.1525 63.3323 80.8695C63.3979 80.59 63.4307 80.3968 63.4307 80.2898C63.4307 80.1863 63.3961 80.1121 63.3271 80.0673C63.2581 80.0224 63.1908 80 63.1253 80H61.0808C60.791 80 60.6461 80.264 60.6461 80.7919C60.6461 81.0093 60.6858 81.3233 60.7651 81.7339C60.8479 82.1479 60.8893 82.4602 60.8893 82.6707C60.8893 82.9709 60.7772 83.121 60.5529 83.121C60.3286 83.121 60.2165 82.9692 60.2165 82.6655C60.2165 82.4723 60.2596 82.1911 60.3459 81.8219C60.4356 81.4527 60.4822 81.1749 60.4856 80.9886L60.496 80.3002C60.5063 79.9793 60.4736 79.7705 60.3976 79.6739L57.9184 76.5322C57.8529 76.446 57.7804 76.2665 57.7011 75.9939L57.3853 76.0043C57.5648 76.1906 57.6545 76.3977 57.6545 76.6254V79.5808L57.7528 82.1997C57.7528 82.2549 57.7356 82.3015 57.7011 82.3395C57.67 82.3809 57.6252 82.4016 57.5665 82.4016C57.5113 82.4016 57.4647 82.3774 57.4267 82.3291C57.3888 82.2842 57.3698 82.2325 57.3698 82.1738L57.4319 80.1863C57.4319 80.1449 57.4164 80.107 57.3853 80.0725C57.3543 80.038 57.3181 80.0207 57.2766 80.0207C57.1869 80.0207 57.1421 80.0897 57.1421 80.2277C57.1421 80.3658 57.1645 80.5918 57.2094 80.9058C57.2577 81.2198 57.2818 81.4354 57.2818 81.5527C57.2818 81.815 57.2163 81.9461 57.0851 81.9461C56.9575 81.9461 56.8936 81.8322 56.8936 81.6045Z" fill="black"/>
<path d="M71.6109 78.3955C71.4798 78.292 71.4142 78.1712 71.4142 78.0332V77.9918C71.4142 77.8538 71.4763 77.7227 71.6005 77.5984L71.5281 77.5312C71.4038 77.6554 71.2744 77.7175 71.1399 77.7175H70.6378C70.4273 77.7175 70.2548 77.7848 70.1202 77.9193L70.0116 77.8106C70.1496 77.6726 70.2186 77.5018 70.2186 77.2982V76.5322C70.2186 76.3252 70.1496 76.1527 70.0116 76.0146L70.1202 75.9111C70.2514 76.0423 70.4239 76.1078 70.6378 76.1078H73.8158C74.0297 76.1078 74.2022 76.0423 74.3333 75.9111L74.4317 76.0146C74.3006 76.1458 74.235 76.3183 74.235 76.5322V78.7009C74.235 78.8078 74.2488 78.8941 74.2764 78.9597C74.3075 79.0218 74.3678 79.077 74.4576 79.1253L74.3747 79.2754C74.3126 79.2443 74.2419 79.2288 74.1625 79.2288C74.0866 79.2288 73.9986 79.2616 73.8986 79.3271C73.098 79.862 71.9594 80.1622 70.4826 80.2277V80.7246L70.5654 81.2991C70.5654 81.3819 70.5481 81.4458 70.5136 81.4906C70.4791 81.5355 70.4394 81.5579 70.3946 81.5579C70.3532 81.5579 70.3152 81.5372 70.2807 81.4958C70.2462 81.4544 70.2289 81.413 70.2289 81.3716C70.2289 81.3336 70.2358 81.2801 70.2496 81.2111C70.291 80.9972 70.3117 80.7798 70.3117 80.559C70.3117 80.3382 70.2962 80.2277 70.2652 80.2277C69.5889 80.2277 68.8781 80.1812 68.1327 80.088C68.1017 80.0776 68.0862 80.2622 68.0862 80.6418C68.0862 81.0214 68.1172 81.413 68.1793 81.8167C68.2449 82.2204 68.2777 82.5016 68.2777 82.6604C68.2777 82.9813 68.1793 83.1417 67.9826 83.1417C67.8895 83.1417 67.8084 83.1055 67.7394 83.033C67.6738 82.9605 67.641 82.8432 67.641 82.6811C67.641 82.5223 67.698 82.2359 67.8118 81.8219C67.9257 81.4113 67.9826 81.0904 67.9826 80.8592V80.0518C66.0124 79.6101 65.0273 78.4214 65.0273 76.4856C65.0273 75.0123 65.6346 73.9823 66.8492 73.3957C67.5496 73.0541 68.4053 72.8833 69.4163 72.8833C71.0484 72.8833 72.301 73.2025 73.174 73.8408C73.6467 74.1859 73.9486 74.5792 74.0797 75.0209C74.1418 75.2279 74.2522 75.3867 74.411 75.4971L74.3333 75.6006C74.1919 75.4971 74.0055 75.4453 73.7743 75.4453L71.5902 75.5178C71.3728 75.5316 71.2261 75.6144 71.1502 75.7662L70.9794 75.6834C71.007 75.6247 71.0208 75.5575 71.0208 75.4815C71.0208 75.4056 70.9622 75.29 70.8449 75.1348C70.7275 74.976 70.5654 74.857 70.3583 74.7776C70.1548 74.6948 69.8839 74.6534 69.5457 74.6534C69.211 74.6534 68.9384 74.7017 68.728 74.7983C68.5175 74.895 68.3501 75.0278 68.2259 75.1969C67.9844 75.5385 67.8636 75.9905 67.8636 76.5529C67.8636 77.1154 68.043 77.5795 68.4019 77.9452C68.7642 78.3075 69.2369 78.4887 69.8201 78.4887C70.4032 78.4887 70.8466 78.4507 71.1502 78.3748C71.2054 78.361 71.2589 78.3541 71.3107 78.3541C71.3624 78.3541 71.4418 78.3955 71.5488 78.4783L71.6109 78.3955Z" fill="white"/>
<circle cx="144.5" cy="75.5" r="27.5" fill="#ACFF40"/>
<path d="M124.607 82.5827L124.705 80.1242C123.653 79.9758 122.842 79.5963 122.272 78.9855C121.706 78.3748 121.424 77.5415 121.424 76.4856C121.424 75.3608 121.793 74.4964 122.531 73.8926C123.345 73.2197 124.555 72.8833 126.159 72.8833C128.73 72.8833 130.167 73.6217 130.471 75.0985C130.512 75.3125 130.604 75.4764 130.745 75.5902L130.657 75.7041C130.492 75.5799 130.312 75.5264 130.119 75.5437L128.126 75.6679C127.895 75.6851 127.745 75.7697 127.676 75.9215L127.505 75.8387C127.54 75.7628 127.557 75.6972 127.557 75.642C127.557 75.4626 127.496 75.3073 127.376 75.1762C127.258 75.0416 127.108 74.9415 126.925 74.876C126.57 74.7483 126.225 74.6845 125.89 74.6845C125.38 74.6845 124.981 74.8587 124.695 75.2072C124.412 75.5523 124.27 76.0026 124.27 76.5581C124.27 77.1102 124.431 77.5622 124.752 77.9142C125.076 78.2627 125.53 78.4369 126.113 78.4369C126.299 78.4369 126.506 78.3921 126.734 78.3023C126.965 78.2092 127.169 78.0763 127.345 77.9038C127.524 77.7313 127.614 77.5484 127.614 77.3552C127.614 77.3 127.595 77.231 127.557 77.1481L127.728 77.0602C127.81 77.2154 127.943 77.3 128.126 77.3138C128.313 77.3276 128.552 77.3465 128.846 77.3707C129.491 77.4294 129.939 77.4587 130.191 77.4587C130.443 77.4587 130.642 77.4052 130.787 77.2982L130.869 77.4069C130.742 77.5035 130.645 77.683 130.58 77.9452C130.517 78.204 130.395 78.4542 130.212 78.6957C130.029 78.9338 129.822 79.1322 129.591 79.2909C129.363 79.4462 129.098 79.5825 128.794 79.6998C128.273 79.9068 127.702 80.0535 127.081 80.1397C127.081 80.4572 127.122 80.9282 127.205 81.5527C127.288 82.1773 127.329 82.5931 127.329 82.8001C127.329 83.0071 127.303 83.1521 127.251 83.2349C127.203 83.3177 127.131 83.3591 127.034 83.3591C126.937 83.3591 126.863 83.3177 126.812 83.2349C126.76 83.1521 126.734 83.0192 126.734 82.8363C126.734 82.6569 126.762 82.3067 126.817 81.7856C126.875 81.2646 126.905 80.9161 126.905 80.7401C126.905 80.5642 126.896 80.4451 126.879 80.383C126.862 80.3209 126.841 80.2726 126.817 80.2381C126.793 80.207 126.751 80.1829 126.692 80.1656C126.558 80.1311 126.396 80.1225 126.206 80.1397C125.826 80.1708 125.637 80.2346 125.637 80.3313L125.761 81.7391C125.761 81.9633 125.695 82.0755 125.564 82.0755C125.433 82.0755 125.367 81.9806 125.367 81.7908C125.367 81.601 125.39 81.3492 125.435 81.0352C125.483 80.7212 125.507 80.4951 125.507 80.3571C125.507 80.2226 125.462 80.1553 125.373 80.1553C125.197 80.1553 125.078 80.1743 125.016 80.2122C124.957 80.2502 124.928 80.2847 124.928 80.3157L124.984 82.5568C124.984 82.6155 124.966 82.6673 124.928 82.7121C124.89 82.7604 124.843 82.7846 124.788 82.7846C124.733 82.7846 124.688 82.7639 124.653 82.7225C124.622 82.6845 124.607 82.6379 124.607 82.5827ZM136.462 80.8385L136.498 80.3416C136.498 80.2553 136.456 80.1881 136.374 80.1397C136.291 80.0949 136.201 80.0725 136.105 80.0725C136.008 80.0725 135.922 80.0983 135.846 80.1501C135.77 80.2019 135.732 80.276 135.732 80.3727V81.5631C135.732 81.7356 135.768 81.9892 135.841 82.3239C135.913 82.6586 135.949 82.8967 135.949 83.0382C135.949 83.1831 135.918 83.3021 135.856 83.3953C135.794 83.4885 135.708 83.5351 135.597 83.5351C135.49 83.5351 135.409 83.4868 135.354 83.3901C135.299 83.2935 135.271 83.1676 135.271 83.0123C135.271 82.857 135.311 82.5879 135.39 82.2049C135.47 81.8219 135.509 81.5251 135.509 81.3146C135.509 80.4624 135.351 80.0362 135.033 80.0362C134.605 80.0362 134.391 80.019 134.391 79.9845V79.9948C134.391 80.2329 134.443 80.5814 134.547 81.0403C134.654 81.5027 134.707 81.834 134.707 82.0341C134.707 82.2342 134.671 82.3981 134.598 82.5258C134.526 82.6569 134.414 82.7225 134.262 82.7225C134.114 82.7225 133.996 82.6604 133.91 82.5361C133.827 82.4119 133.786 82.2497 133.786 82.0496C133.786 81.8529 133.836 81.5131 133.936 81.03C134.036 80.5504 134.086 80.1863 134.086 79.9379C133.268 79.6791 132.652 79.2564 132.238 78.6698C131.828 78.0832 131.622 77.3586 131.622 76.496C131.622 74.7086 132.523 73.5803 134.324 73.111C134.907 72.9592 135.509 72.8833 136.13 72.8833C136.755 72.8833 137.285 72.9178 137.719 72.9868C138.158 73.0558 138.58 73.1783 138.987 73.3543C139.398 73.5268 139.747 73.7477 140.033 74.0168C140.323 74.2825 140.554 74.6275 140.727 75.052C140.899 75.4729 140.985 75.9543 140.985 76.496C140.985 77.6002 140.675 78.4559 140.054 79.0632C139.433 79.667 138.56 80.038 137.435 80.176C137.421 80.2001 137.414 80.2381 137.414 80.2898L137.44 80.5745C137.44 80.7505 137.392 80.8385 137.295 80.8385C137.198 80.8385 137.15 80.7539 137.15 80.5849L137.166 80.295C137.166 80.1915 137.091 80.1397 136.943 80.1397C136.929 80.1708 136.922 80.2295 136.922 80.3157L136.948 80.8178C136.948 80.9213 136.929 81.0214 136.891 81.118C136.853 81.2146 136.789 81.2629 136.7 81.2629C136.541 81.2629 136.462 81.1214 136.462 80.8385ZM134.505 76.5012C134.505 77.7641 135.106 78.3955 136.306 78.3955C137.507 78.3955 138.108 77.7641 138.108 76.5012C138.108 75.9215 137.952 75.4781 137.642 75.171C137.331 74.8639 136.886 74.7104 136.306 74.7104C135.727 74.7104 135.282 74.8639 134.971 75.171C134.661 75.4781 134.505 75.9215 134.505 76.5012ZM155.638 79.1408L155.555 78.499V78.4421C155.627 78.3144 155.726 78.2506 155.85 78.2506L160.073 78.2558C160.284 78.2558 160.455 78.1885 160.586 78.0539L160.689 78.1574C160.496 78.5128 160.399 79.1563 160.399 80.088C160.399 80.2329 160.431 80.5124 160.493 80.9265C160.558 81.344 160.591 81.62 160.591 81.7546C160.591 81.8926 160.569 81.9944 160.524 82.06C160.479 82.1255 160.425 82.1583 160.363 82.1583C160.301 82.1583 160.246 82.1221 160.198 82.0496C160.153 81.9771 160.13 81.8771 160.13 81.7494L160.213 80.6056C160.213 80.3019 160.16 80.0742 160.053 79.9224C159.946 79.7671 159.801 79.6895 159.618 79.6895C159.207 79.6895 159.002 79.9983 159.002 80.6159C159.002 80.854 159.036 81.1991 159.106 81.6511C159.178 82.1031 159.214 82.386 159.214 82.4999C159.214 82.6138 159.188 82.7 159.137 82.7587C159.085 82.8208 159.024 82.8519 158.955 82.8519C158.89 82.8519 158.831 82.8225 158.779 82.7639C158.731 82.7087 158.707 82.6327 158.707 82.5361L158.8 80.8851C158.8 80.2812 158.671 79.9793 158.412 79.9793L158.019 79.9896H153.95C153.643 79.9896 153.417 80.0483 153.272 80.1656C153.107 80.3036 153.024 80.6936 153.024 81.3354C153.024 81.5941 153.064 81.9754 153.143 82.4792C153.222 82.9864 153.262 83.3677 153.262 83.623C153.262 83.9923 153.131 84.1769 152.869 84.1769C152.586 84.1769 152.444 83.9871 152.444 83.6075C152.444 83.3487 152.501 82.9657 152.615 82.4585C152.729 81.9513 152.786 81.5665 152.786 81.3043L152.76 79.5704V73.5354C152.76 73.3215 152.694 73.1507 152.563 73.023L152.667 72.9144C152.808 73.0489 152.981 73.1162 153.184 73.1162H159.83C160.041 73.1162 160.213 73.0489 160.348 72.9144L160.451 73.023C160.299 73.1749 160.223 73.4716 160.223 73.9133V74.1462C160.223 74.5361 160.299 74.8035 160.451 74.9484L160.348 75.0468C160.175 74.8708 159.77 74.7828 159.131 74.7828L156.559 74.9019C155.924 74.9019 155.52 74.8139 155.348 74.6379L155.239 74.7414C155.374 74.8725 155.441 75.0468 155.441 75.2642C155.441 75.4781 155.374 75.6506 155.239 75.7817L155.348 75.8801C155.514 75.7076 155.862 75.6213 156.393 75.6213L158.562 75.7403C159.097 75.7403 159.451 75.6541 159.623 75.4815L159.732 75.5851C159.58 75.7369 159.504 76.0543 159.504 76.5374V76.7393C159.504 77.1085 159.58 77.369 159.732 77.5208L159.623 77.6295C159.457 77.457 159.107 77.3707 158.572 77.3707L156.404 77.4846C155.872 77.4846 155.52 77.3983 155.348 77.2258L155.244 77.3293C155.389 77.4777 155.462 77.7365 155.462 78.1057L155.451 78.5094L155.363 79.1305C155.363 79.2547 155.408 79.3168 155.498 79.3168C155.591 79.3168 155.638 79.2581 155.638 79.1408ZM170.438 81.6977L170.552 80.6263C170.552 80.1915 170.374 79.8603 170.019 79.6325C169.667 79.4013 169.296 79.2995 168.906 79.3271C168.516 79.3513 168.243 79.4824 168.088 79.7205C168.009 79.8344 167.969 79.9689 167.969 80.1242L167.943 81.5113C167.943 81.7011 167.972 81.9823 168.031 82.355C168.09 82.7311 168.119 83.014 168.119 83.2038C168.119 83.5385 168.024 83.7059 167.834 83.7059C167.645 83.7059 167.55 83.5437 167.55 83.2193C167.55 83.0054 167.581 82.6983 167.643 82.298C167.705 81.8978 167.739 81.5941 167.746 81.3871C167.757 81.1801 167.762 80.7384 167.762 80.0621C167.762 79.8827 167.707 79.6757 167.596 79.441C167.486 79.2064 167.312 78.8838 167.074 78.4731C166.835 78.0625 166.64 77.7002 166.489 77.3862L166.333 77.2982C166.251 77.4501 166.104 77.526 165.893 77.526L165.459 77.5415C165.162 77.5415 164.939 77.469 164.791 77.3241L164.682 77.4276C164.693 77.5553 164.698 77.8279 164.698 78.2454L164.693 79.5135C164.693 79.893 164.7 80.1725 164.713 80.352L164.812 81.1128C164.812 81.2543 164.763 81.325 164.667 81.325C164.57 81.325 164.522 81.2594 164.522 81.1283L164.605 80.4865C164.605 80.3313 164.558 80.207 164.465 80.1139C164.375 80.0242 164.256 79.9793 164.108 79.9793C163.963 79.9793 163.833 80.0431 163.72 80.1708C163.609 80.3019 163.554 80.471 163.554 80.678C163.554 80.8851 163.592 81.1646 163.668 81.5165C163.744 81.8719 163.782 82.1272 163.782 82.2825C163.782 82.6069 163.666 82.769 163.435 82.769C163.204 82.769 163.088 82.6103 163.088 82.2929C163.088 82.1445 163.121 81.8857 163.187 81.5165C163.256 81.1473 163.29 80.854 163.29 80.6366C163.29 80.4192 163.24 80.2398 163.14 80.0983C163.04 79.9603 162.926 79.8913 162.798 79.8913C162.671 79.8913 162.562 79.9344 162.472 80.0207C162.383 80.1104 162.338 80.2208 162.338 80.352L162.477 81.5786C162.477 81.7891 162.4 81.8943 162.245 81.8943C162.089 81.8943 162.012 81.7874 162.012 81.5734C162.012 81.4492 162.044 81.2318 162.11 80.9213C162.176 80.6142 162.207 80.3744 162.203 80.2019C162.2 80.0293 162.198 77.7968 162.198 73.5044C162.198 73.2905 162.132 73.1197 162.001 72.992L162.105 72.8885C162.239 73.0196 162.41 73.0852 162.617 73.0852H167.255C167.979 73.0852 168.466 73.1076 168.714 73.1524C168.966 73.1938 169.185 73.2387 169.372 73.287C169.561 73.3353 169.72 73.3957 169.848 73.4682C169.979 73.5372 170.11 73.6252 170.241 73.7321C170.376 73.8356 170.483 73.9547 170.562 74.0893C170.745 74.3964 170.836 74.7224 170.836 75.0675C170.836 75.4125 170.809 75.6955 170.754 75.9163C170.702 76.1337 170.614 76.339 170.49 76.5322C170.22 76.9497 169.748 77.1585 169.071 77.1585L169.03 77.2775C169.247 77.3638 169.392 77.4828 169.465 77.6347C169.768 78.2972 169.993 78.7181 170.138 78.8976C170.283 79.0735 170.417 79.215 170.541 79.322C170.666 79.4289 170.843 79.5376 171.074 79.648C171.306 79.7585 171.445 79.8309 171.494 79.8654C171.542 79.8965 171.566 79.9224 171.566 79.9431C171.566 80.2881 171.613 80.7315 171.706 81.2732C171.799 81.815 171.846 82.1635 171.846 82.3188C171.846 82.474 171.839 82.5862 171.825 82.6552C171.815 82.7242 171.789 82.7915 171.747 82.857C171.706 82.926 171.645 82.9605 171.566 82.9605C171.487 82.9605 171.426 82.9036 171.385 82.7897C171.347 82.6759 171.328 82.5361 171.328 82.3705C171.328 82.2049 171.35 81.9081 171.395 81.4803C171.44 81.0559 171.463 80.735 171.463 80.5176C171.463 80.0863 171.323 79.8706 171.043 79.8706C170.905 79.8706 170.802 79.8948 170.733 79.9431C170.667 79.9914 170.634 80.0897 170.634 80.2381C170.634 80.3899 170.666 80.6297 170.728 80.9575C170.79 81.2853 170.821 81.532 170.821 81.6977C170.821 81.8667 170.757 81.9513 170.629 81.9513C170.502 81.9513 170.438 81.8667 170.438 81.6977ZM166.991 74.8035L165.769 74.8397C165.269 74.8397 164.943 74.7656 164.791 74.6172L164.682 74.7155C164.82 74.8501 164.889 75.0226 164.889 75.2331V75.5799C164.889 75.7869 164.82 75.9594 164.682 76.0975L164.791 76.201C164.939 76.0492 165.246 75.9732 165.712 75.9732L167.022 76.0198C167.37 76.0198 167.639 75.975 167.829 75.8853C168.022 75.7921 168.119 75.623 168.119 75.378C168.119 75.2228 168.066 75.102 167.959 75.0157C167.852 74.926 167.722 74.8691 167.57 74.8449C167.419 74.8173 167.225 74.8035 166.991 74.8035Z" fill="black"/>
<path d="M145.175 81.2784L145.284 80.5435C145.284 80.0362 144.742 79.7826 143.658 79.7826C143.472 79.7826 143.343 79.8257 143.27 79.912C143.198 79.9983 143.162 80.1449 143.162 80.352C143.162 80.559 143.193 80.8454 143.255 81.2111C143.317 81.5803 143.348 81.8616 143.348 82.0548C143.348 82.2515 143.27 82.3498 143.115 82.3498C142.96 82.3498 142.882 82.2463 142.882 82.0393C142.882 81.8357 142.906 81.5269 142.955 81.1128C143.003 80.6987 143.027 80.4175 143.027 80.2691C143.027 79.9172 142.963 79.7412 142.836 79.7412C142.753 79.7412 142.711 79.8396 142.711 80.0362L142.836 80.8954C142.836 81.099 142.761 81.2008 142.613 81.2008C142.468 81.2008 142.396 81.0973 142.396 80.8902L142.515 79.9379L142.509 79.0787V73.5251C142.509 73.3112 142.442 73.1386 142.308 73.0075L142.411 72.8988C142.553 73.0368 142.725 73.1059 142.929 73.1059H147.204C149.267 73.1059 150.547 73.777 151.044 75.1192C151.182 75.4988 151.251 75.9042 151.251 76.3355C151.251 76.7634 151.224 77.1326 151.169 77.4432C151.117 77.7503 151.05 78.0211 150.967 78.2558C150.884 78.4869 150.767 78.6923 150.615 78.8717C150.466 79.0511 150.316 79.2029 150.164 79.3271C150.016 79.4479 149.826 79.5514 149.595 79.6377C149.364 79.724 149.15 79.7912 148.953 79.8396C148.757 79.8844 148.51 79.9189 148.213 79.9431C147.747 79.981 147.2 80 146.572 80H145.822C145.532 80 145.387 80.207 145.387 80.6211L145.47 81.2836C145.47 81.4147 145.425 81.4803 145.335 81.4803C145.228 81.4803 145.175 81.413 145.175 81.2784ZM148.141 77.7175C148.248 77.5795 148.331 77.4018 148.389 77.1844C148.448 76.9635 148.477 76.6996 148.477 76.3925C148.477 76.0819 148.425 75.8231 148.322 75.6161C148.218 75.4091 148.08 75.2573 147.908 75.1606C147.735 75.064 147.544 74.9933 147.333 74.9484C147.123 74.9001 146.902 74.8743 146.671 74.8708C146.44 74.8639 146.224 74.8587 146.024 74.8553C145.534 74.8484 145.22 74.7759 145.082 74.6379L144.978 74.7414C145.109 74.8691 145.175 75.0416 145.175 75.259V76.4494C145.175 77.243 145.178 77.8365 145.185 78.2299H146.36C146.95 78.2299 147.368 78.1781 147.613 78.0746C147.861 77.9711 148.037 77.8521 148.141 77.7175ZM145.506 83.1106C145.506 83.2694 145.448 83.3487 145.33 83.3487C145.216 83.3487 145.159 83.2832 145.159 83.1521C145.159 83.0244 145.166 82.9122 145.18 82.8156C145.197 82.719 145.225 82.5948 145.263 82.443C145.301 82.2946 145.323 82.2014 145.33 82.1635C145.341 82.2083 145.36 82.2825 145.387 82.386C145.415 82.493 145.436 82.5758 145.449 82.6345C145.487 82.7966 145.506 82.9554 145.506 83.1106Z" fill="white"/>
<path d="M31 135.5C32.4182 137.282 33.9153 139 35.5012 140.657C49.6933 155.662 70.9884 164.728 92.4263 164.453C113.911 164.396 134.796 155.041 149.323 140.5C150.968 138.878 152.494 137.235 154 135.5C152.024 136.673 150.085 137.752 148.083 138.817C130.238 148.294 111.299 153.322 92.3433 153.453C73.4071 153.589 54.3545 148.943 36.7877 139.01C34.8362 137.905 32.911 136.739 31 135.5Z" fill="#949191"/>
<defs>
<pattern id="pattern0_1335_410" patternUnits="userSpaceOnUse" patternTransform="matrix(26.65 0 0 10.4 83.3845 91.6545)" preserveAspectRatio="none" viewBox="3.93176 11.1818 51.25 20" width="1" height="1">
<g id="pattern0_1335_410_inner">
<path d="M4.89539 11.1818H5.85903V12.1455H4.89539V11.1818ZM5.85903 12.1455H6.82266V13.1091H5.85903V12.1455ZM5.85903 13.1091H6.82266V14.0727H5.85903V13.1091ZM5.85903 14.0727H6.82266V15.0364H5.85903V14.0727ZM4.89539 15.0364H5.85903V16H4.89539V15.0364ZM3.93175 14.0727H4.89539V15.0364H3.93175V14.0727ZM3.93175 13.1091H4.89539V14.0727H3.93175V13.1091ZM3.93175 12.1455H4.89539V13.1091H3.93175V12.1455ZM3.93175 11.1818H4.89539V12.1455H3.93175V11.1818ZM5.85903 11.1818H6.82266V12.1455H5.85903V11.1818ZM5.85903 15.0364H6.82266V16H5.85903V15.0364ZM3.93175 15.0364H4.89539V16H3.93175V15.0364Z" fill="#0AFF01" fill-opacity="0.42"/>
<path d="M33.6988 11.1818H34.6624V12.1455H33.6988V11.1818ZM34.6624 11.1818H35.6261V12.1455H34.6624V11.1818ZM34.6624 12.1455H35.6261V13.1091H34.6624V12.1455ZM34.6624 13.1091H35.6261V14.0727H34.6624V13.1091ZM34.6624 14.0727H35.6261V15.0364H34.6624V14.0727ZM34.6624 15.0364H35.6261V16H34.6624V15.0364Z" fill="#0AFF01" fill-opacity="0.42"/>
</g>
</pattern></defs>
</svg>
