<svg width="75" height="48" viewBox="0 0 75 48" fill="none" xmlns="http://www.w3.org/2000/svg" xmlns:xlink="http://www.w3.org/1999/xlink">
<circle cx="37" cy="24" r="24" fill="black"/>
<circle cx="37" cy="24" r="24" fill="url(#pattern0_1337_445)"/>
<circle cx="21" cy="18" r="6" fill="#ACFF40"/>
<path d="M15.885 18.811L15.9045 18.5327C15.9045 18.4497 15.8854 18.3891 15.8471 18.3508L15.8715 18.3252C15.9049 18.3577 15.9456 18.374 15.9936 18.374H16.4245C16.4733 18.374 16.514 18.3577 16.5466 18.3252L16.571 18.3508C16.5393 18.3826 16.5234 18.4233 16.5234 18.4729V19.9011C16.5234 19.95 16.5393 19.9906 16.571 20.0232L16.5466 20.0476C16.5148 20.0159 16.4742 20 16.4245 20H15.9936C15.944 20 15.9033 20.0159 15.8715 20.0476L15.8471 20.0232C15.878 19.9923 15.8935 19.9516 15.8935 19.9011L15.8911 19.491C15.8911 19.4421 15.9065 19.4019 15.9375 19.3701L15.913 19.3457C15.8821 19.3766 15.8414 19.3921 15.791 19.3921H15.2905C15.2408 19.3921 15.2001 19.3766 15.1684 19.3457L15.144 19.3701C15.1456 19.3888 15.1464 19.4873 15.1464 19.6655V20.2161C15.1464 20.2901 15.1558 20.3951 15.1745 20.531C15.1932 20.6669 15.2026 20.7629 15.2026 20.8191C15.2026 20.8752 15.1957 20.9135 15.1818 20.9338C15.1688 20.9542 15.1529 20.9644 15.1342 20.9644C15.1155 20.9644 15.0992 20.9542 15.0854 20.9338C15.0724 20.9143 15.0659 20.894 15.0659 20.8728C15.0659 20.8525 15.0699 20.8049 15.0781 20.73C15.1025 20.5037 15.1147 20.3337 15.1147 20.2197C15.1147 20.1636 15.0976 20.1147 15.0634 20.0732C14.9967 19.9927 14.9051 19.9524 14.7888 19.9524C14.7294 19.9524 14.6793 19.9662 14.6386 19.9939C14.5987 20.0216 14.5788 20.0598 14.5788 20.1086C14.5788 20.1583 14.5865 20.2307 14.602 20.3259C14.6183 20.4211 14.6264 20.4871 14.6264 20.5237C14.6264 20.5994 14.6028 20.6372 14.5556 20.6372C14.5336 20.6372 14.5149 20.6287 14.4995 20.6116C14.484 20.5953 14.4763 20.568 14.4763 20.5298C14.4763 20.4924 14.4893 20.4248 14.5153 20.3271C14.5422 20.2295 14.5556 20.1534 14.5556 20.0989V18.4729C14.5556 18.4216 14.5402 18.3809 14.5092 18.3508L14.5324 18.3252C14.5658 18.3577 14.6065 18.374 14.6545 18.374H15.0927C15.1407 18.374 15.181 18.3577 15.2136 18.3252L15.2392 18.3508C15.2018 18.3883 15.1831 18.4493 15.1831 18.5339L15.2014 18.8147C15.2014 18.8985 15.1822 18.9596 15.144 18.9978L15.1684 19.0234C15.2001 18.9917 15.2408 18.9758 15.2905 18.9758H15.7958C15.8455 18.9758 15.8858 18.9917 15.9167 19.0234L15.9423 18.9978C15.9041 18.9587 15.885 18.8965 15.885 18.811ZM18.8824 18.6206L18.8934 19.2444C18.8934 19.4617 18.8665 19.6208 18.8128 19.7217C18.7623 19.8177 18.6903 19.8897 18.5967 19.9377C18.4901 19.9931 18.3485 20.0289 18.1719 20.0452V20.2734L18.1841 20.3992C18.1841 20.4268 18.1764 20.4407 18.1609 20.4407C18.1455 20.4407 18.1377 20.4138 18.1377 20.3601L18.1451 20.1611C18.1451 20.0732 18.1178 20.0293 18.0633 20.0293C18.021 20.0293 17.9998 20.0639 17.9998 20.1331C17.9998 20.1331 18.0018 20.1685 18.0059 20.2393C18.0059 20.2637 18.0108 20.2991 18.0206 20.3455C18.0311 20.3927 18.0364 20.426 18.0364 20.4456C18.0364 20.4651 18.0324 20.4814 18.0242 20.4944C18.0161 20.5074 18.0043 20.5139 17.9888 20.5139C17.9734 20.5139 17.9616 20.507 17.9534 20.4932C17.9461 20.4801 17.9424 20.4643 17.9424 20.4456C17.9424 20.4268 17.9477 20.3959 17.9583 20.3528C17.9697 20.3105 17.9754 20.2832 17.9754 20.271C17.9754 20.2588 17.9754 20.2462 17.9754 20.2332C17.9754 20.2209 17.975 20.2083 17.9742 20.1953C17.9734 20.1823 17.9713 20.166 17.9681 20.1465C17.9616 20.1058 17.942 20.0854 17.9095 20.0854C17.8493 20.0854 17.8191 20.1449 17.8191 20.2637V20.3198C17.8191 20.3499 17.8265 20.3939 17.8411 20.4517C17.8558 20.5094 17.8631 20.5509 17.8631 20.5762C17.8631 20.6388 17.8427 20.6702 17.8021 20.6702C17.7817 20.6702 17.7654 20.6616 17.7532 20.6445C17.7418 20.6274 17.7361 20.6055 17.7361 20.5786C17.7361 20.5518 17.7426 20.5062 17.7557 20.4419C17.7695 20.3776 17.7764 20.3288 17.7764 20.2954V20.0525C17.5453 20.0419 17.372 20.0081 17.2564 19.9512C17.0546 19.8535 16.9508 19.668 16.9451 19.3945C16.9435 19.3188 16.9427 19.2061 16.9427 19.0564L16.9451 18.4924C16.9451 18.4444 16.9292 18.4041 16.8975 18.3716L16.9231 18.3472C16.9533 18.3781 16.9935 18.3936 17.044 18.3936H17.4761C17.5258 18.3936 17.566 18.3781 17.597 18.3472L17.6226 18.3716C17.5917 18.4033 17.5762 18.4436 17.5762 18.4924L17.5787 19.1199C17.5787 19.2411 17.5819 19.318 17.5884 19.3506C17.5949 19.3831 17.6019 19.4132 17.6092 19.4409C17.6173 19.4678 17.6267 19.4893 17.6373 19.5056C17.6486 19.5219 17.6629 19.5394 17.68 19.5581C17.6971 19.576 17.7166 19.5898 17.7386 19.5996C17.7898 19.6224 17.8399 19.6338 17.8887 19.6338C17.9384 19.6338 17.9766 19.6318 18.0035 19.6277C18.0311 19.6228 18.0551 19.6155 18.0755 19.6057C18.0966 19.5951 18.1154 19.5841 18.1316 19.5728C18.1487 19.5605 18.163 19.5455 18.1744 19.5276C18.1866 19.5089 18.1972 19.4914 18.2061 19.4751C18.2151 19.458 18.222 19.4368 18.2269 19.4116C18.2326 19.3864 18.237 19.3644 18.2403 19.3457C18.2435 19.3262 18.246 19.3018 18.2476 19.2725C18.25 19.2277 18.2513 19.1768 18.2513 19.1199L18.2537 18.4924C18.2537 18.4428 18.2387 18.4025 18.2085 18.3716L18.2317 18.3472C18.2627 18.3781 18.3034 18.3936 18.3538 18.3936H18.7859C18.8372 18.3936 18.8779 18.3781 18.908 18.3472L18.9324 18.3716C18.8991 18.4058 18.8824 18.4888 18.8824 18.6206ZM18.2012 20.6775C18.2012 20.7157 18.1878 20.7349 18.1609 20.7349C18.1341 20.7349 18.1207 20.7149 18.1207 20.675C18.1207 20.636 18.1264 20.6026 18.1377 20.575C18.15 20.5481 18.1573 20.5347 18.1597 20.5347C18.1622 20.5347 18.1666 20.542 18.1731 20.5566C18.1919 20.599 18.2012 20.6392 18.2012 20.6775ZM19.7533 20.3784L19.7826 20.0476C19.7826 20.0216 19.768 20 19.7387 19.9829C19.6907 19.9561 19.6321 19.9426 19.5629 19.9426C19.4701 19.9426 19.4062 19.9609 19.3712 19.9976C19.3558 20.0138 19.348 20.0374 19.348 20.0684C19.348 20.1001 19.3574 20.155 19.3761 20.2332C19.3948 20.3113 19.4042 20.3662 19.4042 20.3979C19.4042 20.4305 19.3981 20.4561 19.3859 20.4749C19.3745 20.4944 19.3574 20.5042 19.3346 20.5042C19.3118 20.5042 19.2943 20.4944 19.2821 20.4749C19.2699 20.4561 19.2638 20.4305 19.2638 20.3979C19.2638 20.3654 19.2736 20.3092 19.2931 20.2295C19.3135 20.1497 19.3236 20.0895 19.3236 20.0488L19.3224 18.5522C19.3224 18.4562 19.2931 18.3761 19.2345 18.3118L19.2602 18.2861C19.3261 18.3447 19.4062 18.374 19.5006 18.374H19.8656C19.9177 18.374 19.9617 18.3679 19.9975 18.3557C20.0341 18.3427 20.0634 18.3175 20.0854 18.28L20.1256 18.2996C20.1045 18.35 20.0939 18.3976 20.0939 18.4424C20.0939 18.479 20.1582 18.571 20.2868 18.7183C20.4544 18.9103 20.5622 19.0393 20.6103 19.1052C20.6583 19.1711 20.6896 19.2244 20.7042 19.2651H20.7775C20.7376 19.2065 20.7177 19.1239 20.7177 19.0173C20.7177 18.9677 20.7238 18.8936 20.736 18.7952C20.7482 18.6959 20.7543 18.6214 20.7543 18.5718C20.7543 18.4383 20.712 18.3516 20.6273 18.3118L20.653 18.2861C20.7189 18.3447 20.7991 18.374 20.8935 18.374H21.1437C21.2381 18.374 21.3183 18.3447 21.3842 18.2861L21.4086 18.3118C21.3508 18.3769 21.3219 18.457 21.3219 18.5522L21.3195 20.0427C21.3195 20.0777 21.3276 20.1298 21.3439 20.199C21.3602 20.269 21.3683 20.3215 21.3683 20.3564C21.3683 20.4085 21.3484 20.4346 21.3085 20.4346C21.2686 20.4346 21.2487 20.4085 21.2487 20.3564C21.2487 20.3223 21.2564 20.2718 21.2719 20.2051C21.2873 20.1392 21.2951 20.0936 21.2951 20.0684C21.2951 20.0439 21.2869 20.0264 21.2707 20.0159C21.2544 20.0053 21.2385 20 21.223 20H20.7409C20.6725 20 20.6383 20.0623 20.6383 20.1868C20.6383 20.238 20.6477 20.3121 20.6664 20.4089C20.6859 20.5066 20.6957 20.5802 20.6957 20.6299C20.6957 20.7007 20.6693 20.7361 20.6164 20.7361C20.5635 20.7361 20.537 20.7003 20.537 20.6287C20.537 20.5831 20.5472 20.5168 20.5675 20.4297C20.5887 20.3426 20.5997 20.2771 20.6005 20.2332L20.6029 20.0708C20.6054 19.9951 20.5976 19.9459 20.5797 19.9231L19.995 19.1821C19.9796 19.1618 19.9625 19.1195 19.9438 19.0552L19.8693 19.0576C19.9116 19.1016 19.9328 19.1504 19.9328 19.2041V19.9011L19.956 20.5188C19.956 20.5318 19.9519 20.5428 19.9438 20.5518C19.9364 20.5615 19.9258 20.5664 19.912 20.5664C19.899 20.5664 19.888 20.5607 19.8791 20.5493C19.8701 20.5387 19.8656 20.5265 19.8656 20.5127L19.8803 20.0439C19.8803 20.0342 19.8766 20.0252 19.8693 20.0171C19.862 20.009 19.8534 20.0049 19.8437 20.0049C19.8225 20.0049 19.8119 20.0212 19.8119 20.0537C19.8119 20.0863 19.8172 20.1396 19.8278 20.2136C19.8392 20.2877 19.8449 20.3385 19.8449 20.3662C19.8449 20.4281 19.8294 20.459 19.7985 20.459C19.7684 20.459 19.7533 20.4321 19.7533 20.3784ZM21.6887 18.6902L21.6948 18.5339C21.6948 18.4444 21.6773 18.3826 21.6423 18.3484L21.6667 18.324C21.6993 18.3557 21.7396 18.3716 21.7876 18.3716H23.3904C23.44 18.3716 23.4807 18.3557 23.5125 18.324L23.5369 18.3484C23.5059 18.3793 23.4905 18.42 23.4905 18.4705L23.4844 18.6267C23.4844 18.7146 23.5019 18.776 23.5369 18.811L23.5125 18.8367C23.4758 18.7992 23.4164 18.7805 23.3342 18.7805L23.0645 18.7976C22.979 18.7976 22.9176 18.7789 22.8801 18.7415L22.8545 18.7659C22.8862 18.7968 22.9021 18.8375 22.9021 18.8879V19.9011C22.9021 19.9858 22.9094 20.1119 22.9241 20.2795C22.9395 20.4472 22.9473 20.5575 22.9473 20.6104C22.9473 20.7031 22.9306 20.7495 22.8972 20.7495C22.8639 20.7495 22.8472 20.7166 22.8472 20.6506C22.8472 20.5847 22.8525 20.4952 22.863 20.3821C22.8744 20.2698 22.8801 20.1851 22.8801 20.1282C22.8801 20.0395 22.8626 19.9951 22.8276 19.9951C22.8105 19.9951 22.7971 20.0053 22.7874 20.0256C22.7776 20.046 22.7727 20.0659 22.7727 20.0854L22.8008 20.3406C22.8008 20.3992 22.7841 20.4285 22.7507 20.4285C22.7336 20.4285 22.721 20.4199 22.7129 20.4028C22.7048 20.3857 22.7007 20.3658 22.7007 20.343C22.7007 20.3202 22.708 20.2828 22.7227 20.2307C22.7373 20.1794 22.7446 20.1375 22.7446 20.105C22.7446 20.0724 22.7304 20.0476 22.7019 20.0305C22.6742 20.0134 22.6388 20.0049 22.5957 20.0049C22.5534 20.0049 22.509 20.0134 22.4626 20.0305C22.4171 20.0476 22.3768 20.0741 22.3418 20.1099C22.3068 20.1465 22.2893 20.1823 22.2893 20.2173C22.2893 20.2531 22.2946 20.2962 22.3052 20.3467C22.3166 20.3971 22.3223 20.439 22.3223 20.4724C22.3223 20.5066 22.3072 20.5237 22.2771 20.5237C22.2429 20.5237 22.2258 20.5054 22.2258 20.4688C22.2258 20.4329 22.2323 20.3874 22.2454 20.332C22.2584 20.2767 22.2649 20.2352 22.2649 20.2075V19.8901C22.2665 19.4442 22.2673 19.1101 22.2673 18.8879C22.2673 18.8367 22.2828 18.796 22.3137 18.7659L22.2893 18.7415C22.2535 18.7781 22.1941 18.7964 22.1111 18.7964L21.8486 18.7805C21.7648 18.7805 21.7042 18.7992 21.6667 18.8367L21.6423 18.811C21.6733 18.7801 21.6887 18.7398 21.6887 18.6902ZM22.741 20.6128C22.7605 20.7023 22.7703 20.78 22.7703 20.8459C22.7703 20.8744 22.7601 20.8887 22.7397 20.8887C22.7194 20.8887 22.7092 20.8757 22.7092 20.8496C22.7092 20.7764 22.7198 20.6974 22.741 20.6128ZM24.4164 20.658L24.4298 20.3333C24.4298 20.2283 24.4257 20.1619 24.4176 20.1343C24.4103 20.1066 24.4025 20.0822 24.3944 20.061C24.3862 20.0399 24.3757 20.0228 24.3626 20.0098C24.3496 19.9967 24.3342 19.9845 24.3163 19.9731C24.2821 19.9504 24.2284 19.939 24.1551 19.939C24.0819 19.939 24.02 19.9687 23.9696 20.0281C23.9199 20.0875 23.8951 20.1587 23.8951 20.2417C23.8951 20.2726 23.9012 20.3186 23.9134 20.3796C23.9256 20.4415 23.9317 20.4879 23.9317 20.5188C23.9317 20.5774 23.911 20.6067 23.8695 20.6067C23.828 20.6067 23.8072 20.5782 23.8072 20.5212C23.8072 20.4895 23.8133 20.4419 23.8255 20.3784C23.8386 20.3149 23.8451 20.2669 23.8451 20.2344L23.8536 19.9072V18.4729C23.8536 18.4224 23.8377 18.3818 23.806 18.3508L23.8304 18.3252C23.8646 18.3577 23.9053 18.374 23.9525 18.374H24.3944C24.4432 18.374 24.4839 18.3577 24.5165 18.3252L24.5409 18.3508C24.5091 18.3826 24.4933 18.4233 24.4933 18.4729V19.9011C24.4933 19.9434 24.4888 20.0163 24.4798 20.1196C24.4709 20.2238 24.468 20.304 24.4713 20.3601H24.4701C24.5002 20.4952 24.5152 20.5981 24.5152 20.6689C24.5152 20.7397 24.5018 20.7751 24.475 20.7751C24.4359 20.7751 24.4164 20.7361 24.4164 20.658ZM25.3947 20.3784L25.424 20.0476C25.424 20.0216 25.4094 20 25.3801 19.9829C25.3321 19.9561 25.2735 19.9426 25.2043 19.9426C25.1115 19.9426 25.0476 19.9609 25.0126 19.9976C24.9972 20.0138 24.9895 20.0374 24.9895 20.0684C24.9895 20.1001 24.9988 20.155 25.0175 20.2332C25.0362 20.3113 25.0456 20.3662 25.0456 20.3979C25.0456 20.4305 25.0395 20.4561 25.0273 20.4749C25.0159 20.4944 24.9988 20.5042 24.976 20.5042C24.9532 20.5042 24.9357 20.4944 24.9235 20.4749C24.9113 20.4561 24.9052 20.4305 24.9052 20.3979C24.9052 20.3654 24.915 20.3092 24.9345 20.2295C24.9549 20.1497 24.965 20.0895 24.965 20.0488L24.9638 18.5522C24.9638 18.4562 24.9345 18.3761 24.8759 18.3118L24.9016 18.2861C24.9675 18.3447 25.0476 18.374 25.142 18.374H25.507C25.5591 18.374 25.6031 18.3679 25.6389 18.3557C25.6755 18.3427 25.7048 18.3175 25.7268 18.28L25.767 18.2996C25.7459 18.35 25.7353 18.3976 25.7353 18.4424C25.7353 18.479 25.7996 18.571 25.9282 18.7183C26.0958 18.9103 26.2036 19.0393 26.2517 19.1052C26.2997 19.1711 26.331 19.2244 26.3457 19.2651H26.4189C26.379 19.2065 26.3591 19.1239 26.3591 19.0173C26.3591 18.9677 26.3652 18.8936 26.3774 18.7952C26.3896 18.6959 26.3957 18.6214 26.3957 18.5718C26.3957 18.4383 26.3534 18.3516 26.2687 18.3118L26.2944 18.2861C26.3603 18.3447 26.4405 18.374 26.5349 18.374H26.7851C26.8795 18.374 26.9597 18.3447 27.0256 18.2861L27.05 18.3118C26.9922 18.3769 26.9633 18.457 26.9633 18.5522L26.9609 20.0427C26.9609 20.0777 26.969 20.1298 26.9853 20.199C27.0016 20.269 27.0097 20.3215 27.0097 20.3564C27.0097 20.4085 26.9898 20.4346 26.9499 20.4346C26.91 20.4346 26.8901 20.4085 26.8901 20.3564C26.8901 20.3223 26.8978 20.2718 26.9133 20.2051C26.9287 20.1392 26.9365 20.0936 26.9365 20.0684C26.9365 20.0439 26.9283 20.0264 26.9121 20.0159C26.8958 20.0053 26.8799 20 26.8645 20H26.3823C26.3139 20 26.2797 20.0623 26.2797 20.1868C26.2797 20.238 26.2891 20.3121 26.3078 20.4089C26.3273 20.5066 26.3371 20.5802 26.3371 20.6299C26.3371 20.7007 26.3107 20.7361 26.2578 20.7361C26.2049 20.7361 26.1784 20.7003 26.1784 20.6287C26.1784 20.5831 26.1886 20.5168 26.2089 20.4297C26.2301 20.3426 26.2411 20.2771 26.2419 20.2332L26.2443 20.0708C26.2468 19.9951 26.239 19.9459 26.2211 19.9231L25.6364 19.1821C25.621 19.1618 25.6039 19.1195 25.5852 19.0552L25.5107 19.0576C25.553 19.1016 25.5742 19.1504 25.5742 19.2041V19.9011L25.5974 20.5188C25.5974 20.5318 25.5933 20.5428 25.5852 20.5518C25.5778 20.5615 25.5673 20.5664 25.5534 20.5664C25.5404 20.5664 25.5294 20.5607 25.5205 20.5493C25.5115 20.5387 25.507 20.5265 25.507 20.5127L25.5217 20.0439C25.5217 20.0342 25.518 20.0252 25.5107 20.0171C25.5034 20.009 25.4948 20.0049 25.4851 20.0049C25.4639 20.0049 25.4533 20.0212 25.4533 20.0537C25.4533 20.0863 25.4586 20.1396 25.4692 20.2136C25.4806 20.2877 25.4863 20.3385 25.4863 20.3662C25.4863 20.4281 25.4708 20.459 25.4399 20.459C25.4098 20.459 25.3947 20.4321 25.3947 20.3784Z" fill="black"/>
<path d="M28.8658 19.6216C28.8348 19.5972 28.8194 19.5687 28.8194 19.5361V19.5264C28.8194 19.4938 28.834 19.4629 28.8633 19.4336L28.8462 19.4177C28.8169 19.447 28.7864 19.4617 28.7547 19.4617H28.6363C28.5866 19.4617 28.5459 19.4775 28.5142 19.5093L28.4886 19.4836C28.5211 19.4511 28.5374 19.4108 28.5374 19.3628V19.1821C28.5374 19.1333 28.5211 19.0926 28.4886 19.0601L28.5142 19.0356C28.5451 19.0666 28.5858 19.082 28.6363 19.082H29.3858C29.4362 19.082 29.4769 19.0666 29.5079 19.0356L29.5311 19.0601C29.5001 19.091 29.4847 19.1317 29.4847 19.1821V19.6936C29.4847 19.7188 29.4879 19.7392 29.4944 19.7546C29.5018 19.7693 29.516 19.7823 29.5372 19.7937L29.5176 19.8291C29.503 19.8218 29.4863 19.8181 29.4676 19.8181C29.4497 19.8181 29.4289 19.8258 29.4053 19.8413C29.2165 19.9674 28.948 20.0382 28.5997 20.0537V20.1709L28.6192 20.3064C28.6192 20.3259 28.6151 20.341 28.607 20.3516C28.5988 20.3621 28.5895 20.3674 28.5789 20.3674C28.5691 20.3674 28.5602 20.3625 28.5521 20.3528C28.5439 20.343 28.5398 20.3333 28.5398 20.3235C28.5398 20.3145 28.5415 20.3019 28.5447 20.2856C28.5545 20.2352 28.5594 20.1839 28.5594 20.1318C28.5594 20.0798 28.5557 20.0537 28.5484 20.0537C28.3889 20.0537 28.2212 20.0427 28.0455 20.0208C28.0381 20.0183 28.0345 20.0618 28.0345 20.1514C28.0345 20.2409 28.0418 20.3333 28.0564 20.4285C28.0719 20.5237 28.0796 20.59 28.0796 20.6274C28.0796 20.7031 28.0564 20.741 28.0101 20.741C27.9881 20.741 27.969 20.7324 27.9527 20.7153C27.9372 20.6982 27.9295 20.6706 27.9295 20.6323C27.9295 20.5949 27.9429 20.5273 27.9698 20.4297C27.9966 20.3328 28.0101 20.2572 28.0101 20.2026V20.0122C27.5454 19.908 27.313 19.6277 27.313 19.1711C27.313 18.8236 27.4563 18.5807 27.7427 18.4424C27.9079 18.3618 28.1098 18.3215 28.3482 18.3215C28.7331 18.3215 29.0285 18.3968 29.2344 18.5474C29.3459 18.6287 29.4171 18.7215 29.448 18.8257C29.4627 18.8745 29.4887 18.9119 29.5262 18.938L29.5079 18.9624C29.4745 18.938 29.4306 18.9258 29.376 18.9258L28.8609 18.9429C28.8096 18.9461 28.775 18.9657 28.7571 19.0015L28.7168 18.9819C28.7234 18.9681 28.7266 18.9522 28.7266 18.9343C28.7266 18.9164 28.7128 18.8892 28.6851 18.8525C28.6574 18.8151 28.6192 18.787 28.5704 18.7683C28.5223 18.7488 28.4585 18.739 28.3787 18.739C28.2998 18.739 28.2355 18.7504 28.1858 18.7732C28.1362 18.796 28.0967 18.8273 28.0674 18.8672C28.0105 18.9478 27.982 19.0544 27.982 19.187C27.982 19.3197 28.0243 19.4291 28.1089 19.5154C28.1944 19.6008 28.3059 19.6436 28.4434 19.6436C28.5809 19.6436 28.6855 19.6346 28.7571 19.6167C28.7702 19.6134 28.7828 19.6118 28.795 19.6118C28.8072 19.6118 28.8259 19.6216 28.8511 19.6411L28.8658 19.6216Z" fill="white"/>
<circle cx="53" cy="18" r="6" fill="#ACFF40"/>
<path d="M47.8365 20.6091L47.8597 20.0293C47.6115 19.9943 47.4202 19.9048 47.2859 19.7607C47.1525 19.6167 47.0857 19.4202 47.0857 19.1711C47.0857 18.9058 47.1728 18.702 47.347 18.5596C47.539 18.4009 47.8243 18.3215 48.2027 18.3215C48.809 18.3215 49.1479 18.4957 49.2195 18.844C49.2293 18.8944 49.2509 18.9331 49.2842 18.96L49.2635 18.9868C49.2244 18.9575 49.1821 18.9449 49.1365 18.949L48.6666 18.9783C48.612 18.9823 48.5766 19.0023 48.5604 19.0381L48.5201 19.0186C48.5282 19.0007 48.5323 18.9852 48.5323 18.9722C48.5323 18.9299 48.518 18.8932 48.4896 18.8623C48.4619 18.8306 48.4265 18.807 48.3833 18.7915C48.2995 18.7614 48.2181 18.7463 48.1392 18.7463C48.0188 18.7463 47.9248 18.7874 47.8572 18.8696C47.7905 18.951 47.7571 19.0572 47.7571 19.1882C47.7571 19.3184 47.795 19.425 47.8707 19.5081C47.9472 19.5903 48.0542 19.6313 48.1917 19.6313C48.2356 19.6313 48.2845 19.6208 48.3382 19.5996C48.3927 19.5776 48.4407 19.5463 48.4822 19.5056C48.5245 19.4649 48.5457 19.4218 48.5457 19.3762C48.5457 19.3632 48.5412 19.3469 48.5323 19.3274L48.5726 19.3066C48.5921 19.3433 48.6234 19.3632 48.6666 19.3665C48.7105 19.3697 48.7671 19.3742 48.8362 19.3799C48.9884 19.3937 49.0942 19.4006 49.1536 19.4006C49.213 19.4006 49.2598 19.388 49.294 19.3628L49.3135 19.3884C49.2834 19.4112 49.2606 19.4535 49.2452 19.5154C49.2305 19.5764 49.2016 19.6354 49.1585 19.6924C49.1154 19.7485 49.0665 19.7953 49.012 19.8328C48.9583 19.8694 48.8956 19.9015 48.824 19.9292C48.7011 19.978 48.5665 20.0126 48.42 20.033C48.42 20.1078 48.4297 20.2189 48.4493 20.3662C48.4688 20.5135 48.4786 20.6116 48.4786 20.6604C48.4786 20.7092 48.4725 20.7434 48.4603 20.7629C48.4489 20.7825 48.4318 20.7922 48.409 20.7922C48.3862 20.7922 48.3687 20.7825 48.3565 20.7629C48.3443 20.7434 48.3382 20.7121 48.3382 20.6689C48.3382 20.6266 48.3447 20.544 48.3577 20.4211C48.3715 20.2983 48.3785 20.2161 48.3785 20.1746C48.3785 20.1331 48.3764 20.105 48.3724 20.0903C48.3683 20.0757 48.3634 20.0643 48.3577 20.0562C48.352 20.0488 48.3423 20.0431 48.3284 20.0391C48.2967 20.0309 48.2584 20.0289 48.2137 20.033C48.1242 20.0403 48.0794 20.0553 48.0794 20.0781L48.1087 20.4102C48.1087 20.4631 48.0932 20.4895 48.0623 20.4895C48.0314 20.4895 48.0159 20.4671 48.0159 20.4224C48.0159 20.3776 48.0212 20.3182 48.0318 20.2441C48.0432 20.1701 48.0489 20.1168 48.0489 20.0842C48.0489 20.0525 48.0383 20.0366 48.0171 20.0366C47.9756 20.0366 47.9476 20.0411 47.9329 20.05C47.9191 20.059 47.9122 20.0671 47.9122 20.0745L47.9256 20.603C47.9256 20.6169 47.9211 20.6291 47.9122 20.6396C47.9032 20.651 47.8922 20.6567 47.8792 20.6567C47.8662 20.6567 47.8556 20.6519 47.8475 20.6421C47.8401 20.6331 47.8365 20.6222 47.8365 20.6091ZM50.6325 20.1978L50.641 20.0806C50.641 20.0602 50.6313 20.0444 50.6117 20.033C50.5922 20.0224 50.571 20.0171 50.5482 20.0171C50.5255 20.0171 50.5051 20.0232 50.4872 20.0354C50.4693 20.0476 50.4604 20.0651 50.4604 20.0879V20.3687C50.4604 20.4093 50.4689 20.4692 50.486 20.5481C50.5031 20.627 50.5116 20.6832 50.5116 20.7166C50.5116 20.7507 50.5043 20.7788 50.4896 20.8008C50.475 20.8228 50.4547 20.8337 50.4286 20.8337C50.4034 20.8337 50.3843 20.8223 50.3712 20.7996C50.3582 20.7768 50.3517 20.7471 50.3517 20.7104C50.3517 20.6738 50.3611 20.6104 50.3798 20.52C50.3985 20.4297 50.4079 20.3597 50.4079 20.3101C50.4079 20.109 50.3704 20.0085 50.2956 20.0085C50.1946 20.0085 50.1442 20.0045 50.1442 19.9963V19.9988C50.1442 20.0549 50.1564 20.1371 50.1808 20.2454C50.206 20.3544 50.2187 20.4325 50.2187 20.4797C50.2187 20.5269 50.2101 20.5656 50.193 20.5957C50.1759 20.6266 50.1495 20.6421 50.1137 20.6421C50.0787 20.6421 50.051 20.6274 50.0307 20.5981C50.0111 20.5688 50.0014 20.5306 50.0014 20.4834C50.0014 20.437 50.0132 20.3569 50.0368 20.2429C50.0604 20.1298 50.0722 20.0439 50.0722 19.9854C49.8793 19.9243 49.734 19.8246 49.6364 19.6863C49.5395 19.5479 49.4911 19.377 49.4911 19.1736C49.4911 18.752 49.7035 18.4859 50.1283 18.3752C50.2659 18.3394 50.4079 18.3215 50.5543 18.3215C50.7016 18.3215 50.8266 18.3297 50.9291 18.3459C51.0325 18.3622 51.1321 18.3911 51.2282 18.4326C51.325 18.4733 51.4072 18.5254 51.4748 18.5889C51.5431 18.6515 51.5976 18.7329 51.6383 18.833C51.679 18.9323 51.6994 19.0458 51.6994 19.1736C51.6994 19.434 51.6261 19.6358 51.4796 19.7791C51.3332 19.9215 51.1273 20.009 50.862 20.0415C50.8587 20.0472 50.8571 20.0562 50.8571 20.0684L50.8632 20.1355C50.8632 20.177 50.8518 20.1978 50.829 20.1978C50.8062 20.1978 50.7948 20.1778 50.7948 20.1379L50.7985 20.0696C50.7985 20.0452 50.781 20.033 50.746 20.033C50.7427 20.0403 50.7411 20.0541 50.7411 20.0745L50.7472 20.1929C50.7472 20.2173 50.7427 20.2409 50.7338 20.2637C50.7248 20.2865 50.7098 20.2979 50.6886 20.2979C50.6512 20.2979 50.6325 20.2645 50.6325 20.1978ZM50.171 19.1748C50.171 19.4727 50.3126 19.6216 50.5958 19.6216C50.8791 19.6216 51.0207 19.4727 51.0207 19.1748C51.0207 19.0381 50.984 18.9335 50.9108 18.8611C50.8375 18.7887 50.7326 18.7524 50.5958 18.7524C50.4591 18.7524 50.3542 18.7887 50.2809 18.8611C50.2077 18.9335 50.171 19.0381 50.171 19.1748ZM55.1551 19.7974L55.1356 19.646V19.6326C55.1527 19.6025 55.1759 19.5874 55.2052 19.5874L56.2013 19.5886C56.2509 19.5886 56.2912 19.5728 56.3221 19.541L56.3465 19.5654C56.301 19.6493 56.2782 19.801 56.2782 20.0208C56.2782 20.0549 56.2855 20.1208 56.3001 20.2185C56.3156 20.317 56.3233 20.3821 56.3233 20.4138C56.3233 20.4464 56.318 20.4704 56.3075 20.4858C56.2969 20.5013 56.2843 20.509 56.2696 20.509C56.255 20.509 56.242 20.5005 56.2306 20.4834C56.22 20.4663 56.2147 20.4427 56.2147 20.4126L56.2342 20.1428C56.2342 20.0712 56.2216 20.0175 56.1964 19.9817C56.1712 19.9451 56.137 19.9268 56.0938 19.9268C55.997 19.9268 55.9486 19.9996 55.9486 20.1453C55.9486 20.2014 55.9567 20.2828 55.973 20.3894C55.9901 20.496 55.9986 20.5627 55.9986 20.5896C55.9986 20.6165 55.9925 20.6368 55.9803 20.6506C55.9681 20.6653 55.9539 20.6726 55.9376 20.6726C55.9221 20.6726 55.9083 20.6657 55.8961 20.6519C55.8847 20.6388 55.879 20.6209 55.879 20.5981L55.901 20.2087C55.901 20.0663 55.8705 19.9951 55.8094 19.9951L55.7167 19.9976H54.7572C54.6847 19.9976 54.6314 20.0114 54.5973 20.0391C54.5582 20.0716 54.5387 20.1636 54.5387 20.3149C54.5387 20.376 54.548 20.4659 54.5667 20.5847C54.5855 20.7043 54.5948 20.7943 54.5948 20.8545C54.5948 20.9416 54.5639 20.9851 54.5021 20.9851C54.4353 20.9851 54.402 20.9403 54.402 20.8508C54.402 20.7898 54.4154 20.6995 54.4422 20.5798C54.4691 20.4602 54.4825 20.3695 54.4825 20.3076L54.4764 19.8987V18.4753C54.4764 18.4249 54.461 18.3846 54.43 18.3545L54.4544 18.3289C54.4878 18.3606 54.5285 18.3765 54.5765 18.3765H56.1439C56.1935 18.3765 56.2342 18.3606 56.266 18.3289L56.2904 18.3545C56.2546 18.3903 56.2367 18.4603 56.2367 18.5645V18.6194C56.2367 18.7113 56.2546 18.7744 56.2904 18.8086L56.266 18.8318C56.2253 18.7903 56.1297 18.7695 55.9791 18.7695L55.3724 18.7976C55.2227 18.7976 55.1275 18.7769 55.0868 18.7354L55.0611 18.7598C55.0929 18.7907 55.1087 18.8318 55.1087 18.8831C55.1087 18.9335 55.0929 18.9742 55.0611 19.0051L55.0868 19.0283C55.1258 18.9876 55.208 18.9673 55.3333 18.9673L55.8448 18.9954C55.971 18.9954 56.0544 18.975 56.0951 18.9343L56.1207 18.9587C56.0849 18.9945 56.067 19.0694 56.067 19.1833V19.231C56.067 19.318 56.0849 19.3795 56.1207 19.4153L56.0951 19.4409C56.056 19.4002 55.9734 19.3799 55.8473 19.3799L55.3358 19.4067C55.2105 19.4067 55.1275 19.3864 55.0868 19.3457L55.0624 19.3701C55.0965 19.4051 55.1136 19.4661 55.1136 19.5532L55.1112 19.6484L55.0904 19.7949C55.0904 19.8242 55.101 19.8389 55.1222 19.8389C55.1441 19.8389 55.1551 19.825 55.1551 19.7974ZM58.6457 20.4004L58.6726 20.1477C58.6726 20.0452 58.6306 19.967 58.5468 19.9133C58.4638 19.8588 58.3763 19.8348 58.2844 19.8413C58.1924 19.847 58.1281 19.8779 58.0915 19.9341C58.0728 19.9609 58.0634 19.9927 58.0634 20.0293L58.0573 20.3564C58.0573 20.4012 58.0642 20.4675 58.0781 20.5554C58.0919 20.6441 58.0988 20.7109 58.0988 20.7556C58.0988 20.8346 58.0764 20.874 58.0317 20.874C57.9869 20.874 57.9646 20.8358 57.9646 20.7593C57.9646 20.7088 57.9719 20.6364 57.9865 20.542C58.0012 20.4476 58.0093 20.376 58.0109 20.3271C58.0134 20.2783 58.0146 20.1742 58.0146 20.0146C58.0146 19.9723 58.0016 19.9235 57.9755 19.8682C57.9495 19.8128 57.9084 19.7367 57.8522 19.6399C57.7961 19.5431 57.7501 19.4576 57.7143 19.3835L57.6777 19.3628C57.6582 19.3986 57.6236 19.4165 57.5739 19.4165L57.4714 19.4202C57.4014 19.4202 57.3489 19.4031 57.3139 19.3689L57.2883 19.3933C57.2907 19.4234 57.2919 19.4877 57.2919 19.5862L57.2907 19.8853C57.2907 19.9748 57.2923 20.0407 57.2956 20.083L57.3188 20.2625C57.3188 20.2958 57.3074 20.3125 57.2846 20.3125C57.2618 20.3125 57.2504 20.297 57.2504 20.2661L57.27 20.1147C57.27 20.0781 57.259 20.0488 57.237 20.0269C57.2159 20.0057 57.1878 19.9951 57.1528 19.9951C57.1186 19.9951 57.0881 20.0102 57.0612 20.0403C57.0352 20.0712 57.0222 20.1111 57.0222 20.1599C57.0222 20.2087 57.0311 20.2747 57.049 20.3577C57.0669 20.4415 57.0759 20.5017 57.0759 20.5383C57.0759 20.6148 57.0486 20.6531 56.9941 20.6531C56.9396 20.6531 56.9123 20.6156 56.9123 20.5408C56.9123 20.5058 56.92 20.4447 56.9355 20.3577C56.9518 20.2706 56.9599 20.2014 56.9599 20.1501C56.9599 20.0989 56.9481 20.0566 56.9245 20.0232C56.9009 19.9906 56.8741 19.9744 56.8439 19.9744C56.8138 19.9744 56.7882 19.9845 56.767 20.0049C56.7459 20.026 56.7353 20.0521 56.7353 20.083L56.7683 20.3723C56.7683 20.422 56.75 20.4468 56.7133 20.4468C56.6767 20.4468 56.6584 20.4215 56.6584 20.3711C56.6584 20.3418 56.6661 20.2905 56.6816 20.2173C56.6971 20.1449 56.7044 20.0883 56.7036 20.0476C56.7027 20.0069 56.7023 19.4804 56.7023 18.468C56.7023 18.4176 56.6869 18.3773 56.656 18.3472L56.6804 18.3228C56.7121 18.3537 56.7524 18.3691 56.8012 18.3691H57.895C58.0659 18.3691 58.1806 18.3744 58.2392 18.385C58.2986 18.3948 58.3503 18.4054 58.3942 18.4167C58.439 18.4281 58.4764 18.4424 58.5065 18.4595C58.5375 18.4757 58.5684 18.4965 58.5993 18.5217C58.6311 18.5461 58.6563 18.5742 58.675 18.606C58.7181 18.6784 58.7397 18.7553 58.7397 18.8367C58.7397 18.9181 58.7332 18.9848 58.7202 19.0369C58.708 19.0881 58.6872 19.1366 58.6579 19.1821C58.5944 19.2806 58.4829 19.3298 58.3234 19.3298L58.3137 19.3579C58.3649 19.3783 58.3991 19.4063 58.4162 19.4421C58.4878 19.5984 58.5407 19.6977 58.5749 19.74C58.6091 19.7815 58.6408 19.8149 58.6701 19.8401C58.6994 19.8653 58.7413 19.891 58.7958 19.917C58.8504 19.943 58.8833 19.9601 58.8947 19.9683C58.9061 19.9756 58.9118 19.9817 58.9118 19.9866C58.9118 20.068 58.9228 20.1725 58.9448 20.3003C58.9667 20.4281 58.9777 20.5103 58.9777 20.5469C58.9777 20.5835 58.9761 20.6099 58.9729 20.6262C58.9704 20.6425 58.9643 20.6584 58.9545 20.6738C58.9448 20.6901 58.9305 20.6982 58.9118 20.6982C58.8931 20.6982 58.8789 20.6848 58.8691 20.658C58.8601 20.6311 58.8557 20.5981 58.8557 20.5591C58.8557 20.52 58.861 20.45 58.8715 20.3491C58.8821 20.249 58.8874 20.1733 58.8874 20.1221C58.8874 20.0203 58.8544 19.9695 58.7885 19.9695C58.756 19.9695 58.7316 19.9752 58.7153 19.9866C58.6998 19.998 58.6921 20.0212 58.6921 20.0562C58.6921 20.092 58.6994 20.1485 58.7141 20.2258C58.7287 20.3031 58.736 20.3613 58.736 20.4004C58.736 20.4403 58.721 20.4602 58.6909 20.4602C58.6608 20.4602 58.6457 20.4403 58.6457 20.4004ZM57.8327 18.7744L57.5446 18.783C57.4266 18.783 57.3497 18.7655 57.3139 18.7305L57.2883 18.7537C57.3208 18.7854 57.3371 18.8261 57.3371 18.8757V18.9575C57.3371 19.0063 57.3208 19.047 57.2883 19.0796L57.3139 19.104C57.3489 19.0682 57.4213 19.0503 57.5312 19.0503L57.84 19.0613C57.9222 19.0613 57.9857 19.0507 58.0305 19.0295C58.076 19.0076 58.0988 18.9677 58.0988 18.9099C58.0988 18.8733 58.0862 18.8448 58.061 18.8245C58.0358 18.8033 58.0052 18.7899 57.9694 18.7842C57.9336 18.7777 57.8881 18.7744 57.8327 18.7744Z" fill="black"/>
<path d="M52.6875 20.3015L52.7131 20.1282C52.7131 20.0085 52.5854 19.9487 52.3298 19.9487C52.2859 19.9487 52.2554 19.9589 52.2383 19.9792C52.2212 19.9996 52.2126 20.0342 52.2126 20.083C52.2126 20.1318 52.22 20.1994 52.2346 20.2856C52.2493 20.3727 52.2566 20.439 52.2566 20.4846C52.2566 20.531 52.2383 20.5542 52.2017 20.5542C52.165 20.5542 52.1467 20.5298 52.1467 20.481C52.1467 20.4329 52.1524 20.3601 52.1638 20.2625C52.1752 20.1648 52.1809 20.0985 52.1809 20.0635C52.1809 19.9805 52.1659 19.939 52.1357 19.939C52.1162 19.939 52.1064 19.9622 52.1064 20.0085L52.1357 20.2112C52.1357 20.2592 52.1182 20.2832 52.0833 20.2832C52.0491 20.2832 52.032 20.2588 52.032 20.21L52.0601 19.9854L52.0588 19.7827V18.4729C52.0588 18.4224 52.043 18.3818 52.0112 18.3508L52.0356 18.3252C52.069 18.3577 52.1097 18.374 52.1577 18.374H53.166C53.6527 18.374 53.9546 18.5323 54.0718 18.8489C54.1043 18.9384 54.1206 19.034 54.1206 19.1357C54.1206 19.2367 54.1141 19.3237 54.1011 19.397C54.0889 19.4694 54.073 19.5333 54.0535 19.5886C54.0339 19.6431 54.0063 19.6916 53.9705 19.7339C53.9355 19.7762 53.9001 19.812 53.8643 19.8413C53.8293 19.8698 53.7845 19.8942 53.73 19.9146C53.6755 19.9349 53.625 19.9508 53.5786 19.9622C53.5322 19.9727 53.474 19.9809 53.4041 19.9866C53.2942 19.9955 53.1652 20 53.0171 20H52.8401C52.7717 20 52.7375 20.0488 52.7375 20.1465L52.7571 20.3027C52.7571 20.3337 52.7465 20.3491 52.7253 20.3491C52.7001 20.3491 52.6875 20.3333 52.6875 20.3015ZM53.387 19.4617C53.4122 19.4291 53.4317 19.3872 53.4456 19.3359C53.4594 19.2839 53.4663 19.2216 53.4663 19.1492C53.4663 19.0759 53.4541 19.0149 53.4297 18.9661C53.4053 18.9172 53.3727 18.8814 53.332 18.8586C53.2913 18.8359 53.2462 18.8192 53.1965 18.8086C53.1469 18.7972 53.0948 18.7911 53.0403 18.7903C52.9858 18.7887 52.9349 18.7874 52.8877 18.7866C52.7721 18.785 52.6981 18.7679 52.6655 18.7354L52.6411 18.7598C52.672 18.7899 52.6875 18.8306 52.6875 18.8818V19.1626C52.6875 19.3498 52.6883 19.4897 52.6899 19.5825H52.967C53.1062 19.5825 53.2047 19.5703 53.2625 19.5459C53.321 19.5215 53.3625 19.4934 53.387 19.4617ZM52.7656 20.7336C52.7656 20.7711 52.7518 20.7898 52.7241 20.7898C52.6973 20.7898 52.6838 20.7743 52.6838 20.7434C52.6838 20.7133 52.6855 20.6868 52.6887 20.6641C52.6928 20.6413 52.6993 20.612 52.7083 20.5762C52.7172 20.5412 52.7225 20.5192 52.7241 20.5103C52.7266 20.5208 52.731 20.5383 52.7375 20.5627C52.7441 20.588 52.7489 20.6075 52.7522 20.6213C52.7611 20.6596 52.7656 20.697 52.7656 20.7336Z" fill="white"/>
<path d="M18 36C18.5337 36.4882 19.0419 36.9363 19.5977 37.395C24.416 41.452 30.778 44.3717 37.4106 43.967C44.0299 43.6258 49.9671 40.5906 55.2418 37.1762C55.8375 36.7892 56.4132 36.4022 57 36C56.3485 36.2857 55.7128 36.5611 55.0624 36.8412C49.2736 39.3138 43.3786 41.6704 37.3117 41.9694C31.2461 42.3329 25.2571 40.2383 19.8142 37.0827C19.1948 36.7259 18.6142 36.382 18 36Z" fill="#949191"/>
<defs>
<pattern id="pattern0_1337_445" patternUnits="userSpaceOnUse" patternTransform="matrix(12.1975 0 0 4.76 32.8579 24.7955)" preserveAspectRatio="none" viewBox="3.93176 11.1818 48.79 19.04" width="1" height="1">
<g id="pattern0_1337_445_inner">
<path d="M4.89539 11.1818H5.85903V12.1455H4.89539V11.1818ZM5.85903 12.1455H6.82266V13.1091H5.85903V12.1455ZM5.85903 13.1091H6.82266V14.0727H5.85903V13.1091ZM5.85903 14.0727H6.82266V15.0364H5.85903V14.0727ZM4.89539 15.0364H5.85903V16H4.89539V15.0364ZM3.93175 14.0727H4.89539V15.0364H3.93175V14.0727ZM3.93175 13.1091H4.89539V14.0727H3.93175V13.1091ZM3.93175 12.1455H4.89539V13.1091H3.93175V12.1455ZM3.93175 11.1818H4.89539V12.1455H3.93175V11.1818ZM5.85903 11.1818H6.82266V12.1455H5.85903V11.1818ZM5.85903 15.0364H6.82266V16H5.85903V15.0364ZM3.93175 15.0364H4.89539V16H3.93175V15.0364Z" fill="#0AFF01" fill-opacity="0.42"/>
<path d="M33.6988 11.1818H34.6624V12.1455H33.6988V11.1818ZM34.6624 11.1818H35.6261V12.1455H34.6624V11.1818ZM34.6624 12.1455H35.6261V13.1091H34.6624V12.1455ZM34.6624 13.1091H35.6261V14.0727H34.6624V13.1091ZM34.6624 14.0727H35.6261V15.0364H34.6624V14.0727ZM34.6624 15.0364H35.6261V16H34.6624V15.0364Z" fill="#0AFF01" fill-opacity="0.42"/>
</g>
</pattern></defs>
</svg>
